<?xml version="1.0" encoding="UTF-8" standalone="no"?>
<svg
   width="16"
   height="16"
   fill="currentColor"
   class="bi bi-youtube"
   viewBox="0 0 16 16"
   version="1.1"
   id="svg1384"
   sodipodi:docname="logoGB.svg"
   inkscape:version="1.1.2 (b8e25be833, 2022-02-05)"
   xmlns:inkscape="http://www.inkscape.org/namespaces/inkscape"
   xmlns:sodipodi="http://sodipodi.sourceforge.net/DTD/sodipodi-0.dtd"
   xmlns="http://www.w3.org/2000/svg"
   xmlns:svg="http://www.w3.org/2000/svg">
  <defs
     id="defs1388" />
  <sodipodi:namedview
     id="namedview1386"
     pagecolor="#ffffff"
     bordercolor="#111111"
     borderopacity="1"
     inkscape:pageshadow="0"
     inkscape:pageopacity="0"
     inkscape:pagecheckerboard="1"
     showgrid="false"
     inkscape:zoom="32"
     inkscape:cx="2.546875"
     inkscape:cy="9.546875"
     inkscape:window-width="1920"
     inkscape:window-height="1001"
     inkscape:window-x="-9"
     inkscape:window-y="-9"
     inkscape:window-maximized="1"
     inkscape:current-layer="Layer_1" />
  <g
     id="cabezas"
     transform="matrix(0.04145977,0,0,0.04145977,-4.3494043,-9.346191)"
     style="fill:#000000">
    <path
       d="m 276.69,439.57 c -14.63,-19.94 -29.82,-39.44 -46.96,-57.35 -16.46,-17.19 -28.27,-37.04 -33.92,-60.36 -2.43,-10.02 -8.6,-16.71 -18.58,-19.64 -6.64,-1.95 -13.5,-1.68 -20.31,-1.6 -2.14,0.02 -4.31,0.39 -6.4,0.89 -6.29,1.49 -10.21,6.06 -13.58,11.09 -2.16,3.23 -4.86,5.25 -8.62,6.23 -5.85,1.52 -11.62,3.3 -17.42,4.99 -3.42,0.99 -3.97,2.45 -2.51,5.74 1.17,2.64 2.09,5.38 3.07,8.1 0.73,2.03 1.23,4.15 2.06,6.13 1.6,3.85 4.37,6.68 8.58,7.18 5.08,0.59 10.25,1.02 15.34,0.76 5.54,-0.29 9.11,1.79 9.83,7.05 0.26,1.88 0.25,3.85 -0.03,5.72 -0.83,5.58 -1.42,6.01 -7.18,6.24 -0.14,0.01 -0.28,0.1 -0.7,0.26 0.76,1.39 1.5,2.74 2.69,4.88 -2.8,-0.79 -5.08,-1.43 -7.35,-2.06 -2.52,5.62 -1.48,8.73 4.61,13.29 -1.92,0.37 -3.63,0.7 -5.35,1.02 -0.11,0.21 -0.23,0.42 -0.34,0.64 1.53,1.01 3.05,2.02 4.32,2.86 -2.82,4.48 -5.74,9.13 -8.75,13.9 1.06,0.52 1.68,0.83 2.44,1.2 -0.76,2.5 -1.47,4.85 -2.26,7.46 0.96,-0.49 1.67,-0.85 2.83,-1.44 -2.08,6.11 0.56,11.06 2.56,16.15 1.21,3.09 2.23,6.25 3.45,9.33 0.69,1.76 1.23,3.33 2.81,4.96 4.3,4.42 8.23,9.4 9.51,15.82 0.45,2.27 1.07,4.53 1.89,6.69 0.88,2.32 2.23,4.36 5.21,4.99 0.18,-2.62 0.35,-5 0.51,-7.39 0.54,-8 0.44,-15.96 -1.58,-23.79 -1.72,-6.67 -3.39,-13.34 -3.05,-20.05 1.01,3.99 1.73,8.35 3.23,12.42 3.61,9.79 4.93,19.94 5.66,30.26 0.74,10.36 1.87,20.69 2.74,31.05 0.64,7.67 0.76,15.3 -2.49,22.55 -2.33,5.21 -5.13,9.48 -11.84,9.67 -3.94,0.11 -7.38,5.6 -6.91,9.68 0.31,2.67 3.51,6.49 8.14,6.24 5.4,-0.29 10.83,-0.03 16.24,-0.1 4.92,-0.06 8.95,-2.93 10.02,-7.74 0.63,-2.85 0.12,-5.94 0.38,-8.89 0.21,-2.35 0.1,-5.21 1.39,-6.87 2.22,-2.86 2.2,-5.41 1.04,-8.41 -0.15,-0.38 -0.11,-0.84 -0.27,-1.21 -1.61,-3.78 -0.16,-6.36 3.17,-8.23 0.12,-0.07 0.17,-0.27 0.3,-0.49 -0.34,-1.11 -0.69,-2.28 -1.09,-3.61 2.95,-0.8 3.2,-2.6 2.37,-5.17 -0.5,-1.53 -0.49,-3.31 -0.35,-4.95 0.44,-5.11 1.61,-9.87 7.3,-11.79 -0.25,-1.49 -0.49,-2.95 -0.74,-4.4 0.28,-0.23 0.56,-0.46 0.83,-0.69 1.08,1.52 2.16,3.03 3.24,4.55 0.32,-0.15 0.63,-0.29 0.95,-0.44 -1.05,-4.15 -2.09,-8.31 -3.13,-12.43 1.55,1.84 3.21,3.82 5.24,6.24 -0.17,-5.81 -0.29,-11.12 -2.74,-16.16 0.93,0.79 1.87,1.58 2.8,2.37 -1.1,-4.06 -3.08,-7.72 -3.78,-11.61 -0.71,-3.97 -0.16,-8.16 -0.16,-12.25 0.23,-0.06 0.46,-0.11 0.69,-0.17 -0.78,10.66 6.1,19.25 7.56,29.74 -1.42,-1.03 -2.48,-1.81 -3.54,-2.58 1.94,5.89 2.01,11.43 -0.38,17.33 -0.63,-1.28 -1.08,-2.19 -1.77,-3.58 -0.31,2.48 -0.54,4.35 -0.77,6.22 -0.19,0.06 -0.37,0.12 -0.56,0.18 -0.56,-0.87 -1.13,-1.74 -1.69,-2.61 -0.17,0.14 -0.35,0.28 -0.52,0.41 -0.06,1.19 -0.13,2.38 -0.19,3.61 -0.77,0.08 -1.36,0.07 -1.9,0.22 -2.35,0.64 -3.02,2.57 -3.64,4.62 -0.59,1.97 0.09,3.05 1.67,4.35 2.94,2.42 5.88,5 8.17,8.01 2.5,3.28 4.26,7.13 6.56,11.11 0.94,-3.08 1.89,-6.2 2.95,-9.7 -1.87,0 -3,0 -4.14,0 1.13,-6.03 2.1,-11.9 3.34,-17.73 1.84,-8.65 7.04,-14.5 15.35,-17.55 10.55,-3.88 20.81,-1.77 27.6,5.93 -1.2,-0.66 -2.1,-1.06 -2.88,-1.61 -5.71,-4.01 -11.95,-4.56 -18.57,-3.03 -8.32,1.93 -15.58,5.24 -18.08,14.35 -1.5,5.46 -2.62,11.02 -3.93,16.66 1.42,-0.7 2.78,-1.38 4.66,-2.31 -1.08,5.6 -2.05,10.62 -3.11,16.08 1.31,-0.95 2.22,-1.61 3.34,-2.42 0.08,1.29 0.14,2.28 0.2,3.32 0.86,-0.24 1.54,-0.42 2.21,-0.61 3.16,8.83 4.46,10.86 9.43,14.32 2.04,1.42 4.22,2.65 6.28,4.06 0.98,0.67 1.81,1.54 3.23,2.77 -1.47,0.31 -2.29,0.74 -3,0.6 -4.2,-0.85 -8.36,-1.89 -12.56,-2.74 -1.55,-0.32 -3.8,-1.05 -4.64,-0.32 -3.12,2.68 -6.16,5.62 -8.5,8.98 -2.07,2.98 0.18,6.29 3.86,6.29 18.99,0.01 37.98,0.06 56.97,-0.1 7.15,-0.06 13.55,-2.42 18.52,-7.85 0.49,-0.54 0.88,-1.18 1.29,-1.86 0.23,-0.39 0.47,-0.8 0.74,-1.21 0,0 7.14,-7.8 10.36,-23.88 0,-0.54 0,-1.08 0,-1.62 0,-7.11 -0.19,-14.25 -1.01,-21.29 -1.92,-16.24 -8.38,-30.81 -17.96,-43.87 z M 154.04,321.31 c -2.41,0.29 -4.82,0.58 -7.9,0.95 -0.05,-1.54 -0.18,-3.33 -0.08,-5.1 0.01,-0.2 1.46,-0.69 1.9,-0.44 2.17,1.25 4.22,2.7 6.31,4.08 -0.08,0.17 -0.16,0.34 -0.23,0.51 z m 32.82,7.88 c -4.51,4.83 -8.42,10.23 -12.42,15.51 -2.75,3.64 -4.94,3.95 -7.44,0.1 -1.54,-2.37 -2.43,-5.24 -3.26,-7.99 -1.55,-5.14 -1.72,-10.44 -1.37,-14.61 1.3,4.72 2.79,10.49 4.54,16.18 0.54,1.77 1.63,3.44 2.75,4.94 1.03,1.38 2.45,1.39 3.52,-0.11 0.91,-1.28 1.53,-2.77 2.5,-3.99 2.73,-3.45 5.38,-6.98 8.4,-10.16 5.4,-5.69 6,-12.71 1.12,-18.57 -1.06,-1.27 -2.52,-2.21 -4.14,-3.59 7.68,1.89 13.01,14.57 5.8,22.29 z"
       id="path874"
       style="fill:#000000" />
    <path
       d="m 194.35,492.98 c -1.93,-1.87 -4.01,-3.59 -6.03,-5.37 -0.23,0.13 -0.46,0.25 -0.7,0.38 0.18,2.53 0.35,5.05 0.53,7.66 -0.72,0.15 -1.49,0.32 -2.48,0.53 0.59,1.5 1.12,2.86 1.7,4.33 -0.92,0.57 -1.71,1.19 -2.6,1.59 -1.42,0.65 -2.01,1.53 -1.51,3.12 1.1,3.48 2.13,6.99 3.29,10.83 -5.85,2.82 -5.5,8.61 -5.01,15.01 3.09,0 6.19,0.36 9.17,-0.07 8.45,-1.21 9.56,-3.19 7.18,-11.56 -0.93,-3.26 -1.73,-6.55 -2.57,-9.84 -0.05,-0.21 0.07,-0.47 0.12,-0.75 0.63,-0.17 1.24,-0.34 2.05,-0.56 -2.02,-4.02 -2.02,-4.02 1.41,-6.66 0.07,-0.05 0.14,-0.09 0.21,-0.14 1.23,-1.02 1.52,-1.98 0.2,-3.26 -1.73,-1.66 -3.23,-3.57 -4.96,-5.24 z"
       id="path876"
       style="fill:#000000" />
    <path
       d="m 208.55,525.12 c 3.03,-2.83 4.61,-2.97 8.29,-1.07 3.36,1.74 6.79,3.16 10.83,2.61 -3.76,-2.64 -7.32,-5.17 -10.91,-7.67 -2.46,-1.71 -5.15,-2.56 -7.96,-1.14 -3.86,1.95 -5.84,5.57 -7.26,9.42 -0.31,0.85 0.58,2.15 0.91,3.24 0.3,0.08 0.59,0.15 0.89,0.23 1.73,-1.89 3.35,-3.89 5.21,-5.62 z"
       id="path878"
       style="fill:#000000" />
    <path
       d="m 484.03,323.72 c -5.19,-1.42 -10.29,-3.15 -15.52,-4.38 -4.92,-1.16 -8.37,-3.84 -11.12,-8.05 -4.33,-6.65 -10.39,-10.7 -18.65,-10.65 -4.16,0.02 -8.33,-0.14 -12.47,0.19 -13.42,1.05 -23.33,7.14 -26.79,21.2 -5.5,22.32 -16.43,41.68 -32.16,58.27 -17.85,18.84 -33.99,39.06 -49.19,60.03 -8.47,11.69 -14.36,24.66 -16.83,39.06 -1.55,9.07 -2.82,18.21 -1.7,27.34 1.78,14.4 10.41,24.64 10.41,24.64 0.48,0.42 0.87,0.77 1.22,1.16 5.6,6.27 12.79,8.67 20.98,8.68 18.41,0.01 36.82,0.04 55.23,0.02 3.82,0 5.7,-3.08 4,-6.5 -0.47,-0.95 -1.13,-1.86 -1.86,-2.64 -1.59,-1.7 -3.33,-3.26 -4.92,-4.96 -1.8,-1.92 -3.73,-2.05 -6.09,-1.05 -2.35,1 -4.81,1.99 -7.31,2.33 -2.54,0.35 -5.27,1.42 -8.53,-0.35 4.29,-3.02 8.23,-5.57 11.93,-8.45 3.97,-3.09 5.95,-7.47 6.83,-12.46 0.92,0.29 1.61,0.51 2.39,0.77 0.07,-1.11 0.12,-2.11 0.2,-3.36 1.19,0.87 2.1,1.53 3.29,2.39 -1.04,-5.44 -2.01,-10.49 -3.06,-15.98 1.9,0.89 3.28,1.53 4.63,2.16 -0.84,-3.58 -1.91,-6.98 -2.41,-10.46 -1.62,-11.29 -6.63,-17 -17.57,-19.98 -7.51,-2.04 -14.61,-1.89 -21.16,2.87 -0.62,0.45 -1.38,0.72 -2.07,1.07 6.53,-6.39 14.11,-9.13 23.2,-6.94 8.91,2.15 15.92,6.72 18.58,15.83 1.96,6.69 2.94,13.66 4.41,20.75 -1.42,0 -2.54,0 -4.33,0 1.1,3.47 2.07,6.57 3.23,10.23 1.4,-3.17 2.23,-5.61 3.49,-7.81 2.86,-4.98 6.91,-8.94 11.49,-12.34 1.11,-0.83 1.63,-1.56 1.32,-3.09 -0.81,-3.98 -1.69,-5.05 -5.71,-5.87 -0.06,-1.15 -0.12,-2.32 -0.19,-3.5 -0.19,-0.11 -0.38,-0.22 -0.57,-0.32 -0.59,0.87 -1.18,1.74 -2.12,3.12 -0.32,-2.61 -0.55,-4.49 -0.85,-6.98 -0.76,1.51 -1.22,2.44 -1.79,3.58 -2.4,-5.95 -2.25,-11.52 -0.33,-17.28 -1.07,0.76 -2.14,1.53 -3.59,2.56 1.64,-10.51 8.28,-19.11 7.88,-29.65 2.24,8.55 -0.06,16.27 -4.25,23.67 0.24,0.09 0.49,0.17 0.73,0.26 0.94,-0.77 1.88,-1.55 2.82,-2.32 -2.58,5.08 -2.7,10.36 -2.47,15.71 1.01,-1.03 1.72,-2.15 2.56,-3.17 0.79,-0.96 1.72,-1.8 2.27,-2.36 -0.95,3.91 -1.95,8.03 -2.95,12.15 0.33,0.15 0.67,0.3 1,0.45 1.09,-1.44 2.18,-2.88 3.27,-4.32 0.22,0.19 0.44,0.39 0.67,0.58 -0.25,1.45 -0.5,2.9 -0.78,4.55 2.83,0.19 4.21,2.07 5.42,4.25 2.15,3.85 2.45,8 1.56,12.12 -0.57,2.65 -0.66,4.56 2.37,5.26 -0.44,1.46 -0.79,2.63 -1.14,3.82 0.55,0.41 1,0.78 1.47,1.1 2.46,1.62 3.28,3.72 2.27,6.6 -0.66,1.87 -1.05,3.84 -1.43,5.79 -0.12,0.63 -0.05,1.55 0.34,1.99 2.87,3.25 3.58,6.98 2.92,11.17 -0.24,1.55 -0.16,3.16 -0.09,4.74 0.22,5.17 4.44,10.02 9.24,10.18 6.41,0.22 12.83,0.17 19.24,0.05 3.54,-0.07 6.84,-3.85 6.47,-7.25 -0.41,-3.67 -2.67,-8.61 -8.26,-8.79 -3.97,-0.13 -6.48,-2.21 -8.5,-5.54 -4.93,-8.15 -5.26,-17.02 -4.52,-26.07 0.87,-10.69 1.77,-21.37 2.91,-32.03 0.78,-7.26 1.59,-14.55 3.13,-21.67 1.49,-6.91 3.93,-13.61 5.95,-20.41 -0.56,5.3 -1.01,10.69 -2.33,15.87 -1.9,7.47 -3.14,14.95 -2.82,22.66 0.17,4.2 0.46,8.4 0.75,13.47 1.68,-1.41 3.05,-2.14 3.78,-3.28 1.06,-1.64 2.02,-3.51 2.37,-5.41 1.24,-6.55 3.62,-12.63 8.49,-17.14 3.66,-3.38 4.85,-7.65 6.38,-11.95 1.59,-4.45 3.48,-8.81 4.74,-13.34 0.62,-2.25 0.11,-4.81 0.11,-7.28 0.76,0.35 1.45,0.67 2.35,1.09 -0.8,-2.65 -1.51,-5.01 -2.23,-7.39 0.83,-0.43 1.46,-0.75 2.42,-1.25 -3.03,-4.78 -5.98,-9.44 -8.72,-13.77 1.33,-0.93 2.8,-1.96 4.27,-2.99 -0.14,-0.2 -0.28,-0.39 -0.43,-0.59 -1.68,-0.33 -3.36,-0.66 -5.46,-1.08 7.21,-3.75 6.86,-9.11 4.59,-13.45 -2.15,0.77 -4.18,2.61 -6.65,1.51 0.77,-1.47 1.47,-2.81 2.3,-4.38 -0.85,0 -1.26,0 -1.67,0 -4.3,0.01 -5.29,-0.72 -5.98,-4.91 -0.32,-1.95 -0.49,-3.97 -0.42,-5.94 0.2,-5.7 3.61,-8.46 9.31,-8.15 4.13,0.22 8.3,0.26 12.42,-0.09 7.7,-0.65 10.97,-3.61 13.28,-11.01 1.15,-3.7 2.42,-7.39 3.93,-10.96 1.52,-3.5 0.93,-4.92 -2.82,-5.95 z m -55.26,20.58 c -0.28,0.41 -0.58,0.82 -0.92,1.18 -2.83,2.99 -4.27,2.79 -6.74,-0.43 -4.13,-5.4 -8.13,-10.94 -12.72,-15.93 -6.85,-7.45 -2.23,-19.83 5.52,-21.9 -1.3,1.13 -2.8,2.09 -3.87,3.41 -4.71,5.8 -4.11,12.54 0.97,18.23 3.63,4.07 6.89,8.5 10.05,12.95 2.29,3.23 4.11,3.43 5.93,-0.21 2.94,-5.9 4.94,-12.15 5.4,-18.79 0.04,-0.56 0.07,-1.13 0.13,-2.19 1.56,6.98 -0.79,19.29 -3.75,23.68 z m 20.44,-22.04 c -3.03,-0.36 -5.44,-0.65 -7.86,-0.94 -0.1,-0.18 -0.2,-0.36 -0.3,-0.53 2.14,-1.39 4.24,-2.84 6.42,-4.16 1.21,-0.74 1.92,-0.14 1.92,1.18 0.01,1.56 -0.12,3.13 -0.18,4.45 z"
       id="path880"
       style="fill:#000000" />
    <path
       d="m 408.03,515.72 c 0.91,-1.54 1.78,-2.76 2.39,-4.1 0.61,-1.35 1.08,-2.8 1.39,-4.25 0.84,-3.95 0.79,-3.96 -2.61,-6.07 -0.41,-0.26 -0.8,-0.56 -1.24,-0.87 0.57,-1.44 1.1,-2.8 1.67,-4.25 -1.02,-0.23 -1.79,-0.4 -2.45,-0.55 0.17,-2.65 0.33,-5.17 0.53,-8.21 -5.28,3.29 -8.66,7.65 -12.34,11.69 -0.27,0.3 0,1.42 0.37,1.9 0.48,0.62 1.3,1 1.99,1.46 1.7,1.13 2.49,2.42 0.88,4.26 -0.34,0.39 -0.47,0.97 -0.71,1.51 0.83,0.31 1.48,0.55 2.37,0.88 -0.57,2.29 -1.12,4.45 -1.65,6.61 -0.76,3.13 -1.64,6.25 -2.22,9.42 -0.36,1.98 0.53,3.68 2.48,4.42 4.84,1.83 9.8,2.22 14.91,1.06 0.45,-6.03 0.81,-11.85 -5.76,-14.91 z"
       id="path882"
       style="fill:#000000" />
    <path
       d="m 389.88,520.54 c -2.77,-3.72 -7.2,-4.43 -11.02,-1.8 -3.72,2.57 -7.39,5.21 -11.03,7.79 3.61,0.52 5.54,0.07 10.73,-2.55 3.57,-1.8 5.17,-1.68 8.1,1.03 1.88,1.74 3.56,3.7 5.56,5.82 1.67,-1.72 2.14,-3.22 1.2,-4.87 -1.07,-1.87 -2.26,-3.69 -3.54,-5.42 z"
       id="path884"
       style="fill:#000000" />
    <path
       class="st0"
       d="m 318.13,440.32 c 15.2,-20.98 31.34,-41.2 49.19,-60.03 4.06,-4.28 7.78,-8.75 11.19,-13.41 L 375,367 c 6.04,-8.32 11.04,-17.03 14.95,-26.03 -22.39,-25.83 -55.44,-42.16 -92.31,-42.16 -36.87,0 -69.93,16.34 -92.32,42.18 4.11,9.38 9.36,18.42 15.69,27.01 l -3.35,-0.03 c 3.68,4.95 7.71,9.7 12.08,14.26 17.14,17.9 32.33,37.41 46.96,57.35 9.58,13.05 16.04,27.63 17.94,43.84 0.82,7.04 1.02,14.18 1.01,21.29 0,0.54 0,1.08 0,1.62 -3.22,16.07 -10.36,23.88 -10.36,23.88 -0.27,0.41 -0.5,0.82 -0.74,1.21 -0.4,0.68 -0.79,1.32 -1.29,1.86 -3.33,3.64 -7.31,5.9 -11.72,7.01 8.41,1.83 17.14,2.81 26.1,2.81 9.04,0 17.85,-0.99 26.34,-2.86 -4.8,-1.21 -9.1,-3.65 -12.73,-7.71 -0.35,-0.39 -0.75,-0.74 -1.22,-1.16 0,0 -8.63,-10.24 -10.41,-24.64 -1.13,-9.12 0.14,-18.27 1.7,-27.34 2.45,-14.41 8.34,-27.38 16.81,-39.07 z"
       id="path886"
       style="fill:#000000" />
  </g>
  <g
     id="Layer_1"
     transform="matrix(0.04145977,0,0,0.04145977,-4.3494043,-9.346191)">
    <g
       id="g911"
       style="fill:#ffffff;fill-opacity:1">
      <g
         id="g909"
         style="fill:#ffffff;fill-opacity:1">
        <path
           class="st1"
           d="m 254.4,404.54 c -0.37,0.04 -0.69,0.08 -0.97,0.14 -0.28,0.05 -0.64,0.16 -1.06,0.31 -0.48,0.17 -0.8,0.45 -0.96,0.83 -0.16,0.38 -0.23,0.79 -0.23,1.22 v 3.2 c 0,0.65 0.01,1.17 0.02,1.56 0.01,0.39 0.03,0.88 0.05,1.46 -1.18,0.78 -2.93,1.51 -5.24,2.19 -2.31,0.69 -4.43,1.03 -6.37,1.03 -1.82,0 -3.53,-0.3 -5.12,-0.91 -1.59,-0.61 -2.99,-1.52 -4.2,-2.74 -1.2,-1.2 -2.15,-2.7 -2.84,-4.48 -0.69,-1.79 -1.04,-3.83 -1.04,-6.13 0,-2.15 0.32,-4.13 0.97,-5.96 0.65,-1.82 1.59,-3.4 2.82,-4.71 1.2,-1.31 2.67,-2.31 4.4,-3.03 1.73,-0.71 3.65,-1.07 5.75,-1.07 1.43,0 2.75,0.19 3.97,0.58 1.22,0.39 2.22,0.8 3.01,1.24 l 1.1,-1.07 H 250 l 0.16,10.04 h -1.56 c -0.9,-3.02 -1.97,-5.26 -3.22,-6.72 -1.25,-1.46 -2.83,-2.2 -4.75,-2.2 -2.27,0 -4.02,1.09 -5.25,3.26 -1.23,2.17 -1.85,5.17 -1.85,8.98 0,4.05 0.6,7.22 1.82,9.51 1.21,2.29 2.93,3.43 5.15,3.43 1.04,0 1.96,-0.17 2.77,-0.51 0.81,-0.34 1.44,-0.74 1.89,-1.19 v -5.58 c 0,-0.47 -0.08,-0.86 -0.23,-1.17 -0.15,-0.32 -0.46,-0.59 -0.92,-0.82 -0.35,-0.18 -0.8,-0.33 -1.33,-0.45 -0.53,-0.12 -0.97,-0.2 -1.33,-0.25 v -1.51 h 13.06 v 1.52 z"
           id="path889"
           style="fill:#ffffff;fill-opacity:1" />
        <path
           class="st1"
           d="m 275.29,398.79 c 0.87,0.89 1.54,1.96 2,3.2 0.46,1.24 0.69,2.59 0.69,4.03 0,1.43 -0.23,2.79 -0.68,4.06 -0.45,1.27 -1.12,2.36 -1.99,3.27 -0.93,0.97 -2.05,1.71 -3.34,2.23 -1.29,0.52 -2.77,0.78 -4.44,0.78 -1.44,0 -2.77,-0.23 -3.98,-0.68 -1.21,-0.45 -2.28,-1.13 -3.22,-2.04 -0.9,-0.87 -1.61,-1.94 -2.13,-3.21 -0.52,-1.27 -0.78,-2.7 -0.78,-4.27 0,-1.55 0.23,-2.93 0.68,-4.14 0.45,-1.21 1.14,-2.28 2.05,-3.23 0.87,-0.9 1.95,-1.61 3.23,-2.1 1.28,-0.5 2.71,-0.75 4.3,-0.75 1.65,0 3.11,0.25 4.37,0.75 1.26,0.5 2.34,1.19 3.24,2.1 z m -4.54,13.43 c 0.26,-0.72 0.45,-1.6 0.58,-2.64 0.12,-1.03 0.19,-2.24 0.19,-3.61 0,-0.9 -0.06,-1.94 -0.18,-3.1 -0.12,-1.16 -0.3,-2.08 -0.53,-2.75 -0.28,-0.81 -0.68,-1.45 -1.18,-1.92 -0.5,-0.47 -1.14,-0.7 -1.9,-0.7 -0.84,0 -1.51,0.25 -2.01,0.76 -0.5,0.5 -0.89,1.16 -1.16,1.96 -0.25,0.74 -0.42,1.6 -0.51,2.59 -0.09,0.99 -0.14,2.02 -0.14,3.09 0,1.41 0.04,2.58 0.12,3.5 0.08,0.92 0.28,1.85 0.6,2.78 0.27,0.8 0.66,1.43 1.17,1.9 0.51,0.47 1.15,0.7 1.93,0.7 0.71,0 1.32,-0.22 1.82,-0.65 0.51,-0.43 0.91,-1.07 1.2,-1.91 z"
           id="path891"
           style="fill:#ffffff;fill-opacity:1" />
        <path
           class="st1"
           d="m 292.8,415.73 h -11.16 v -1.42 c 0.31,-0.03 0.61,-0.06 0.9,-0.1 0.29,-0.04 0.55,-0.1 0.78,-0.19 0.38,-0.16 0.64,-0.38 0.78,-0.67 0.14,-0.29 0.21,-0.67 0.21,-1.15 v -21.48 c 0,-0.49 -0.09,-0.95 -0.27,-1.37 -0.18,-0.42 -0.43,-0.74 -0.74,-0.96 -0.24,-0.17 -0.59,-0.33 -1.07,-0.48 -0.48,-0.16 -0.9,-0.25 -1.27,-0.27 v -1.42 l 8.93,-0.5 0.27,0.31 v 25.92 c 0,0.48 0.08,0.87 0.23,1.16 0.15,0.29 0.4,0.53 0.75,0.7 0.24,0.12 0.49,0.22 0.75,0.31 0.26,0.09 0.57,0.15 0.93,0.19 v 1.42 z"
           id="path893"
           style="fill:#ffffff;fill-opacity:1" />
        <path
           class="st1"
           d="m 319.06,415.32 -8.73,0.56 -0.27,-0.27 v -1.78 l -0.12,-0.04 c -0.58,0.69 -1.36,1.28 -2.34,1.79 -0.99,0.51 -1.98,0.77 -2.98,0.77 -2.38,0 -4.35,-0.97 -5.89,-2.91 -1.55,-1.94 -2.32,-4.45 -2.32,-7.52 0,-2.73 0.86,-5.07 2.59,-7.02 1.73,-1.95 3.82,-2.93 6.27,-2.93 0.97,0 1.88,0.12 2.73,0.36 0.85,0.24 1.53,0.52 2.03,0.84 v -6.34 c 0,-0.48 -0.09,-0.93 -0.27,-1.35 -0.18,-0.42 -0.41,-0.75 -0.71,-0.98 -0.37,-0.28 -0.82,-0.49 -1.37,-0.61 -0.55,-0.12 -1.1,-0.21 -1.66,-0.26 v -1.42 l 9.58,-0.5 0.27,0.31 v 25.42 c 0,0.49 0.07,0.9 0.22,1.24 0.15,0.34 0.38,0.6 0.71,0.79 0.25,0.14 0.61,0.25 1.08,0.31 0.47,0.06 0.87,0.1 1.17,0.12 v 1.42 z m -9.04,-3.45 v -10.95 c -0.08,-0.3 -0.2,-0.63 -0.34,-0.99 -0.15,-0.36 -0.35,-0.7 -0.61,-1.03 -0.24,-0.27 -0.55,-0.51 -0.95,-0.72 -0.39,-0.21 -0.84,-0.31 -1.33,-0.31 -1.18,0 -2.14,0.73 -2.9,2.19 -0.76,1.46 -1.13,3.52 -1.13,6.18 0,1.05 0.07,1.99 0.2,2.82 0.13,0.83 0.37,1.59 0.72,2.28 0.35,0.69 0.78,1.22 1.32,1.61 0.54,0.39 1.18,0.58 1.94,0.58 0.72,0 1.31,-0.15 1.79,-0.46 0.46,-0.29 0.89,-0.69 1.29,-1.2 z"
           id="path895"
           style="fill:#ffffff;fill-opacity:1" />
        <path
           class="st1"
           d="m 340.98,411.1 c -0.41,0.74 -0.91,1.43 -1.5,2.08 -0.58,0.65 -1.25,1.21 -1.99,1.68 -0.79,0.49 -1.59,0.86 -2.4,1.11 -0.81,0.25 -1.74,0.38 -2.79,0.38 -1.75,0 -3.26,-0.27 -4.53,-0.81 -1.27,-0.54 -2.32,-1.27 -3.14,-2.19 -0.83,-0.92 -1.44,-2 -1.85,-3.25 -0.41,-1.25 -0.61,-2.6 -0.61,-4.06 0,-1.32 0.22,-2.58 0.66,-3.79 0.44,-1.21 1.07,-2.28 1.89,-3.23 0.8,-0.92 1.82,-1.66 3.04,-2.23 1.22,-0.57 2.59,-0.85 4.1,-0.85 1.65,0 3.01,0.22 4.07,0.66 1.06,0.44 1.94,1.05 2.64,1.82 0.67,0.74 1.16,1.61 1.47,2.61 0.31,1 0.46,2.05 0.46,3.15 v 1.26 h -11.98 c 0,2.65 0.47,4.67 1.4,6.05 0.93,1.38 2.42,2.07 4.45,2.07 1.11,0 2.11,-0.33 2.99,-1 0.88,-0.67 1.64,-1.51 2.27,-2.53 z m -6.77,-7.37 c 0,-0.78 -0.04,-1.57 -0.11,-2.38 -0.07,-0.81 -0.2,-1.48 -0.37,-2 -0.2,-0.61 -0.48,-1.07 -0.82,-1.38 -0.34,-0.31 -0.79,-0.47 -1.32,-0.47 -0.91,0 -1.64,0.5 -2.18,1.51 -0.54,1.01 -0.84,2.6 -0.89,4.79 z"
           id="path897"
           style="fill:#ffffff;fill-opacity:1" />
        <path
           class="st1"
           d="m 367.77,415.73 h -10.65 v -1.42 c 0.22,-0.03 0.5,-0.06 0.82,-0.1 0.32,-0.04 0.56,-0.1 0.73,-0.19 0.25,-0.14 0.42,-0.35 0.53,-0.62 0.11,-0.27 0.16,-0.67 0.16,-1.2 v -9.07 c 0,-1.32 -0.22,-2.31 -0.67,-2.98 -0.44,-0.67 -1.1,-1 -1.96,-1 -0.47,0 -0.92,0.08 -1.32,0.23 -0.41,0.16 -0.81,0.38 -1.2,0.68 -0.34,0.26 -0.62,0.52 -0.83,0.79 -0.21,0.27 -0.38,0.51 -0.52,0.72 v 10.41 c 0,0.45 0.06,0.83 0.18,1.13 0.12,0.3 0.31,0.53 0.58,0.69 0.19,0.12 0.43,0.22 0.71,0.31 0.28,0.09 0.56,0.15 0.83,0.19 v 1.42 h -10.77 v -1.42 c 0.29,-0.03 0.59,-0.06 0.89,-0.11 0.3,-0.04 0.56,-0.11 0.77,-0.18 0.38,-0.14 0.64,-0.36 0.78,-0.66 0.14,-0.3 0.21,-0.68 0.21,-1.16 v -11.28 c 0,-0.4 -0.09,-0.79 -0.28,-1.18 -0.19,-0.39 -0.44,-0.7 -0.74,-0.95 -0.21,-0.15 -0.48,-0.28 -0.81,-0.39 -0.33,-0.1 -0.68,-0.17 -1.07,-0.21 v -1.42 l 8.45,-0.5 0.27,0.29 v 2.81 h 0.07 c 0.33,-0.32 0.73,-0.71 1.2,-1.16 0.47,-0.45 0.91,-0.82 1.31,-1.1 0.44,-0.31 1.01,-0.57 1.72,-0.79 0.71,-0.22 1.46,-0.33 2.27,-0.33 1.92,0 3.37,0.6 4.33,1.79 0.96,1.2 1.44,2.78 1.44,4.76 v 9.5 c 0,0.48 0.06,0.86 0.2,1.14 0.13,0.28 0.37,0.51 0.73,0.68 0.19,0.09 0.42,0.18 0.7,0.27 0.28,0.09 0.59,0.15 0.95,0.19 v 1.42 z"
           id="path899"
           style="fill:#ffffff;fill-opacity:1" />
        <path
           class="st1"
           d="m 281.36,435.11 c 0.76,0.57 1.37,1.28 1.84,2.14 0.47,0.86 0.71,1.87 0.71,3.03 0,1.4 -0.27,2.58 -0.81,3.54 -0.54,0.96 -1.31,1.72 -2.31,2.28 -1.06,0.59 -2.29,1.01 -3.68,1.26 -1.39,0.25 -3.02,0.37 -4.9,0.37 h -13.06 v -1.51 c 0.37,-0.04 0.83,-0.1 1.38,-0.17 0.55,-0.08 0.94,-0.17 1.17,-0.27 0.44,-0.19 0.74,-0.45 0.89,-0.77 0.16,-0.32 0.24,-0.73 0.24,-1.23 v -19.39 c 0,-0.47 -0.06,-0.85 -0.19,-1.16 -0.13,-0.31 -0.44,-0.58 -0.94,-0.81 -0.37,-0.17 -0.79,-0.31 -1.28,-0.42 -0.49,-0.11 -0.91,-0.2 -1.28,-0.26 v -1.51 h 13.66 c 3.44,0 5.92,0.52 7.44,1.55 1.52,1.03 2.29,2.56 2.29,4.58 0,0.93 -0.17,1.75 -0.51,2.45 -0.34,0.71 -0.83,1.32 -1.47,1.83 -0.58,0.48 -1.27,0.89 -2.07,1.24 -0.8,0.35 -1.67,0.64 -2.59,0.87 v 0.37 c 0.92,0.1 1.88,0.33 2.87,0.67 0.99,0.34 1.86,0.78 2.6,1.32 z m -5.71,-8.28 c 0,-1.52 -0.39,-2.71 -1.18,-3.57 -0.79,-0.85 -1.96,-1.28 -3.54,-1.28 -0.22,0 -0.52,0.01 -0.88,0.03 -0.36,0.02 -0.67,0.04 -0.93,0.05 v 10.2 h 0.92 c 1.91,0 3.33,-0.49 4.23,-1.46 0.9,-0.97 1.38,-2.3 1.38,-3.97 z m 1.24,13.21 c 0,-1.92 -0.52,-3.38 -1.56,-4.41 -1.04,-1.02 -2.53,-1.53 -4.48,-1.53 -0.22,0 -0.52,0.01 -0.9,0.03 -0.38,0.02 -0.65,0.04 -0.82,0.05 v 10.08 c 0.11,0.48 0.44,0.88 0.99,1.21 0.55,0.33 1.23,0.5 2.02,0.5 1.41,0 2.55,-0.52 3.43,-1.55 0.88,-1.04 1.32,-2.5 1.32,-4.38 z"
           id="path901"
           style="fill:#ffffff;fill-opacity:1" />
        <path
           class="st1"
           d="m 306.24,430.79 c 0.87,0.89 1.54,1.96 2,3.2 0.46,1.24 0.69,2.59 0.69,4.03 0,1.43 -0.23,2.79 -0.68,4.06 -0.45,1.27 -1.12,2.36 -1.99,3.27 -0.93,0.97 -2.05,1.71 -3.34,2.23 -1.29,0.52 -2.77,0.78 -4.44,0.78 -1.44,0 -2.77,-0.23 -3.98,-0.68 -1.21,-0.45 -2.28,-1.13 -3.22,-2.04 -0.9,-0.87 -1.61,-1.93 -2.13,-3.21 -0.52,-1.28 -0.78,-2.7 -0.78,-4.27 0,-1.55 0.23,-2.93 0.68,-4.14 0.45,-1.21 1.14,-2.28 2.05,-3.23 0.87,-0.9 1.95,-1.61 3.23,-2.1 1.28,-0.5 2.71,-0.75 4.3,-0.75 1.65,0 3.11,0.25 4.37,0.75 1.26,0.49 2.34,1.19 3.24,2.1 z m -4.54,13.43 c 0.26,-0.72 0.45,-1.6 0.58,-2.64 0.12,-1.03 0.19,-2.24 0.19,-3.61 0,-0.9 -0.06,-1.94 -0.18,-3.1 -0.12,-1.16 -0.3,-2.08 -0.53,-2.75 -0.28,-0.81 -0.68,-1.45 -1.18,-1.92 -0.5,-0.46 -1.14,-0.7 -1.9,-0.7 -0.84,0 -1.51,0.25 -2.01,0.76 -0.5,0.51 -0.89,1.16 -1.16,1.96 -0.25,0.74 -0.42,1.6 -0.51,2.59 -0.09,0.99 -0.14,2.02 -0.14,3.09 0,1.41 0.04,2.58 0.12,3.5 0.08,0.92 0.28,1.85 0.6,2.78 0.27,0.8 0.66,1.43 1.17,1.9 0.51,0.46 1.15,0.7 1.93,0.7 0.71,0 1.32,-0.22 1.82,-0.65 0.5,-0.43 0.9,-1.07 1.2,-1.91 z"
           id="path903"
           style="fill:#ffffff;fill-opacity:1" />
        <path
           class="st1"
           d="m 332.94,429.91 c -0.53,0.09 -1.05,0.31 -1.55,0.66 -0.5,0.35 -0.92,0.89 -1.25,1.63 -1.02,2.35 -2.06,4.86 -3.14,7.51 -1.08,2.66 -2.27,5.53 -3.58,8.62 -0.73,1.73 -1.44,3.11 -2.13,4.15 -0.68,1.03 -1.33,1.83 -1.93,2.38 -0.57,0.52 -1.13,0.89 -1.68,1.12 -0.55,0.23 -1.12,0.35 -1.68,0.35 -1.12,0 -2.03,-0.34 -2.72,-1.03 -0.69,-0.68 -1.04,-1.45 -1.04,-2.31 0,-0.36 0.04,-0.7 0.12,-1.01 0.08,-0.31 0.24,-0.63 0.49,-0.97 0.19,-0.28 0.48,-0.53 0.88,-0.73 0.4,-0.2 0.84,-0.3 1.34,-0.3 0.66,0 1.29,0.25 1.89,0.76 0.6,0.5 1.23,1.2 1.88,2.09 0.39,-0.43 0.87,-1.07 1.44,-1.92 0.57,-0.85 1,-1.72 1.27,-2.61 -1.41,-3.23 -2.65,-6.03 -3.74,-8.4 -1.09,-2.37 -2.3,-5.01 -3.65,-7.93 -0.29,-0.62 -0.69,-1.1 -1.19,-1.44 -0.5,-0.34 -1.02,-0.55 -1.58,-0.63 v -1.42 h 10.84 v 1.42 c -0.4,0.01 -0.86,0.11 -1.39,0.29 -0.52,0.18 -0.79,0.41 -0.79,0.7 0,0.1 0.02,0.22 0.05,0.34 0.04,0.12 0.1,0.3 0.19,0.53 0.4,0.9 0.97,2.16 1.71,3.76 0.74,1.61 1.6,3.48 2.58,5.64 0.73,-1.83 1.35,-3.41 1.87,-4.73 0.51,-1.32 1.01,-2.62 1.5,-3.89 0.12,-0.32 0.19,-0.58 0.2,-0.76 0.02,-0.19 0.03,-0.31 0.03,-0.38 0,-0.23 -0.1,-0.44 -0.31,-0.61 -0.21,-0.17 -0.45,-0.33 -0.73,-0.46 -0.29,-0.13 -0.58,-0.23 -0.85,-0.29 -0.27,-0.07 -0.5,-0.11 -0.67,-0.14 v -1.42 h 7.32 z"
           id="path905"
           style="fill:#ffffff;fill-opacity:1" />
        <path
           class="st1"
           d="m 343.22,448.39 c -1.15,0 -2.26,-0.18 -3.36,-0.55 -1.09,-0.37 -1.94,-0.76 -2.54,-1.17 l -0.53,1.32 h -1.38 l -0.23,-7.23 h 1.29 c 0.18,0.58 0.47,1.24 0.89,1.97 0.41,0.73 0.89,1.39 1.42,1.97 0.56,0.58 1.19,1.07 1.91,1.47 0.71,0.4 1.48,0.6 2.29,0.6 1.07,0 1.88,-0.23 2.4,-0.69 0.52,-0.46 0.79,-1.17 0.79,-2.12 0,-0.52 -0.12,-0.94 -0.35,-1.28 -0.23,-0.34 -0.56,-0.63 -0.97,-0.87 -0.46,-0.26 -0.97,-0.48 -1.51,-0.66 -0.55,-0.18 -1.23,-0.4 -2.03,-0.66 -0.8,-0.26 -1.49,-0.52 -2.06,-0.79 -0.57,-0.26 -1.17,-0.68 -1.78,-1.25 -0.53,-0.5 -0.96,-1.11 -1.28,-1.82 -0.32,-0.71 -0.48,-1.56 -0.48,-2.54 0,-1.82 0.7,-3.3 2.1,-4.42 1.4,-1.12 3.23,-1.69 5.5,-1.69 1.07,0 2.06,0.12 2.97,0.36 0.9,0.24 1.66,0.5 2.28,0.79 l 0.37,-1.14 h 1.35 l 0.28,6.61 h -1.24 c -0.41,-1.34 -1.12,-2.5 -2.13,-3.48 -1,-0.98 -2.08,-1.46 -3.24,-1.46 -0.91,0 -1.62,0.21 -2.14,0.62 -0.52,0.41 -0.78,0.99 -0.78,1.73 0,0.98 0.38,1.69 1.14,2.13 0.76,0.44 1.83,0.85 3.19,1.24 2.11,0.59 3.66,1.41 4.63,2.43 0.98,1.03 1.47,2.34 1.47,3.93 0,2.12 -0.76,3.76 -2.28,4.92 -1.53,1.15 -3.51,1.73 -5.96,1.73 z"
           id="path907"
           style="fill:#ffffff;fill-opacity:1" />
      </g>
    </g>
  </g>
</svg>
