<?xml version="1.0" encoding="utf-8"?>
<!-- Generator: Adobe Illustrator 26.0.0, SVG Export Plug-In . SVG Version: 6.00 Build 0)  -->
<svg version="1.1" xmlns="http://www.w3.org/2000/svg" xmlns:xlink="http://www.w3.org/1999/xlink" x="0px" y="0px"
	 viewBox="0 0 110 110" style="enable-background:new 0 0 110 110;" xml:space="preserve">
<style type="text/css">
	.st0{stroke:#000000;stroke-miterlimit:10;}
	.st1{fill:#FFFFFF;}
	.st2{fill:none;stroke:#000000;stroke-width:0.5;stroke-miterlimit:10;}
</style>
<g id="fondo_00000155837072356433750500000006440106558878173841_">
	<circle class="st0" cx="55" cy="55" r="41"/>
</g>
<g id="Layer_1">
	<g>
		<g>
			<path class="st1" d="M41.88,30.94c-0.11,0.01-0.21,0.03-0.3,0.04c-0.09,0.02-0.2,0.05-0.33,0.1c-0.15,0.05-0.25,0.14-0.29,0.26
				s-0.07,0.24-0.07,0.38v0.98c0,0.2,0,0.36,0.01,0.48c0,0.12,0.01,0.27,0.02,0.45c-0.36,0.24-0.9,0.46-1.61,0.67
				c-0.71,0.21-1.36,0.32-1.96,0.32c-0.56,0-1.08-0.09-1.57-0.28c-0.49-0.19-0.92-0.47-1.29-0.84c-0.37-0.37-0.66-0.83-0.87-1.38
				c-0.21-0.55-0.32-1.18-0.32-1.88c0-0.66,0.1-1.27,0.3-1.83c0.2-0.56,0.49-1.04,0.87-1.45c0.37-0.4,0.82-0.71,1.35-0.93
				c0.53-0.22,1.12-0.33,1.77-0.33c0.44,0,0.85,0.06,1.22,0.18c0.37,0.12,0.68,0.25,0.93,0.38l0.34-0.33h0.47l0.05,3.08H40.1
				c-0.28-0.93-0.61-1.62-0.99-2.06c-0.38-0.45-0.87-0.67-1.46-0.67c-0.7,0-1.23,0.33-1.61,1c-0.38,0.67-0.57,1.59-0.57,2.76
				c0,1.24,0.19,2.22,0.56,2.92c0.37,0.7,0.9,1.05,1.58,1.05c0.32,0,0.6-0.05,0.85-0.16c0.25-0.11,0.44-0.23,0.58-0.37v-1.72
				c0-0.14-0.02-0.26-0.07-0.36c-0.05-0.1-0.14-0.18-0.28-0.25c-0.11-0.06-0.24-0.1-0.41-0.14c-0.16-0.04-0.3-0.06-0.41-0.08v-0.46
				h4.01V30.94z"/>
			<path class="st1" d="M48.3,29.17c0.27,0.27,0.47,0.6,0.61,0.98c0.14,0.38,0.21,0.79,0.21,1.24c0,0.44-0.07,0.86-0.21,1.25
				c-0.14,0.39-0.34,0.73-0.61,1c-0.29,0.3-0.63,0.53-1.03,0.68c-0.4,0.16-0.85,0.24-1.36,0.24c-0.44,0-0.85-0.07-1.22-0.21
				s-0.7-0.35-0.99-0.63c-0.28-0.27-0.49-0.59-0.65-0.99c-0.16-0.39-0.24-0.83-0.24-1.31c0-0.48,0.07-0.9,0.21-1.27
				c0.14-0.37,0.35-0.7,0.63-0.99c0.27-0.28,0.6-0.49,0.99-0.65c0.39-0.15,0.83-0.23,1.32-0.23c0.51,0,0.96,0.08,1.34,0.23
				C47.69,28.67,48.02,28.89,48.3,29.17z M46.91,33.29c0.08-0.22,0.14-0.49,0.18-0.81c0.04-0.32,0.06-0.69,0.06-1.11
				c0-0.28-0.02-0.6-0.05-0.95c-0.04-0.36-0.09-0.64-0.16-0.85c-0.09-0.25-0.21-0.45-0.36-0.59c-0.15-0.14-0.35-0.21-0.58-0.21
				c-0.26,0-0.46,0.08-0.62,0.23c-0.15,0.15-0.27,0.36-0.36,0.6c-0.08,0.23-0.13,0.49-0.16,0.8c-0.03,0.3-0.04,0.62-0.04,0.95
				c0,0.43,0.01,0.79,0.04,1.07c0.03,0.28,0.09,0.57,0.19,0.85c0.08,0.25,0.2,0.44,0.36,0.58c0.16,0.14,0.35,0.21,0.59,0.21
				c0.22,0,0.4-0.07,0.56-0.2C46.69,33.75,46.81,33.55,46.91,33.29z"/>
			<path class="st1" d="M53.68,34.37h-3.43v-0.43c0.09-0.01,0.19-0.02,0.28-0.03c0.09-0.01,0.17-0.03,0.24-0.06
				c0.12-0.05,0.2-0.12,0.24-0.21c0.04-0.09,0.06-0.21,0.06-0.35v-6.6c0-0.15-0.03-0.29-0.08-0.42c-0.06-0.13-0.13-0.23-0.23-0.29
				c-0.07-0.05-0.18-0.1-0.33-0.15c-0.15-0.05-0.28-0.08-0.39-0.08v-0.43l2.74-0.15l0.08,0.1v7.96c0,0.15,0.02,0.27,0.07,0.36
				c0.05,0.09,0.12,0.16,0.23,0.21c0.07,0.04,0.15,0.07,0.23,0.1s0.18,0.05,0.28,0.06V34.37z"/>
			<path class="st1" d="M61.74,34.25l-2.68,0.17l-0.08-0.08v-0.55l-0.04-0.01c-0.18,0.21-0.42,0.39-0.72,0.55
				c-0.3,0.16-0.61,0.24-0.92,0.24c-0.73,0-1.34-0.3-1.81-0.89c-0.47-0.6-0.71-1.37-0.71-2.31c0-0.84,0.27-1.56,0.8-2.16
				c0.53-0.6,1.17-0.9,1.93-0.9c0.3,0,0.58,0.04,0.84,0.11c0.26,0.07,0.47,0.16,0.62,0.26v-1.95c0-0.15-0.03-0.28-0.08-0.41
				c-0.05-0.13-0.13-0.23-0.22-0.3c-0.11-0.09-0.25-0.15-0.42-0.19c-0.17-0.04-0.34-0.06-0.51-0.08v-0.43l2.94-0.15l0.08,0.1v7.81
				c0,0.15,0.02,0.28,0.07,0.38c0.04,0.1,0.12,0.18,0.22,0.24c0.08,0.04,0.19,0.08,0.33,0.1s0.27,0.03,0.36,0.04V34.25z
				 M58.97,33.19v-3.36c-0.03-0.09-0.06-0.19-0.11-0.3c-0.04-0.11-0.11-0.22-0.19-0.32c-0.07-0.08-0.17-0.16-0.29-0.22
				c-0.12-0.06-0.26-0.1-0.41-0.1c-0.36,0-0.66,0.22-0.89,0.67c-0.23,0.45-0.35,1.08-0.35,1.9c0,0.32,0.02,0.61,0.06,0.87
				c0.04,0.26,0.11,0.49,0.22,0.7c0.1,0.21,0.24,0.38,0.4,0.49c0.16,0.12,0.36,0.18,0.59,0.18c0.22,0,0.4-0.05,0.55-0.14
				C58.71,33.47,58.85,33.34,58.97,33.19z"/>
			<path class="st1" d="M68.48,32.95c-0.13,0.23-0.28,0.44-0.46,0.64c-0.18,0.2-0.38,0.37-0.61,0.52c-0.24,0.15-0.49,0.27-0.74,0.34
				c-0.25,0.08-0.53,0.12-0.86,0.12c-0.54,0-1-0.08-1.39-0.25c-0.39-0.17-0.71-0.39-0.97-0.67c-0.25-0.28-0.44-0.61-0.57-1
				c-0.13-0.38-0.19-0.8-0.19-1.25c0-0.4,0.07-0.79,0.2-1.16c0.14-0.37,0.33-0.7,0.58-0.99c0.25-0.28,0.56-0.51,0.93-0.68
				c0.38-0.17,0.8-0.26,1.26-0.26c0.51,0,0.93,0.07,1.25,0.2c0.33,0.13,0.6,0.32,0.81,0.56c0.21,0.23,0.36,0.49,0.45,0.8
				c0.09,0.31,0.14,0.63,0.14,0.97v0.39h-3.68c0,0.81,0.14,1.43,0.43,1.86c0.29,0.42,0.74,0.64,1.37,0.64c0.34,0,0.65-0.1,0.92-0.31
				c0.27-0.2,0.5-0.46,0.7-0.78L68.48,32.95z M66.4,30.69c0-0.24-0.01-0.48-0.03-0.73c-0.02-0.25-0.06-0.45-0.11-0.61
				c-0.06-0.19-0.15-0.33-0.25-0.42s-0.24-0.14-0.41-0.14c-0.28,0-0.5,0.15-0.67,0.46c-0.17,0.31-0.26,0.8-0.27,1.47L66.4,30.69z"/>
			<path class="st1" d="M76.71,34.37h-3.27v-0.43c0.07-0.01,0.15-0.02,0.25-0.03c0.1-0.01,0.17-0.03,0.22-0.06
				c0.08-0.04,0.13-0.11,0.16-0.19c0.03-0.08,0.05-0.21,0.05-0.37V30.5c0-0.4-0.07-0.71-0.2-0.91c-0.14-0.2-0.34-0.31-0.6-0.31
				c-0.15,0-0.28,0.02-0.41,0.07c-0.13,0.05-0.25,0.12-0.37,0.21c-0.11,0.08-0.19,0.16-0.25,0.24c-0.06,0.08-0.12,0.16-0.16,0.22
				v3.2c0,0.14,0.02,0.26,0.05,0.35c0.04,0.09,0.1,0.16,0.18,0.21c0.06,0.04,0.13,0.07,0.22,0.1s0.17,0.05,0.26,0.06v0.43h-3.31
				v-0.43c0.09-0.01,0.18-0.02,0.27-0.03c0.09-0.01,0.17-0.03,0.24-0.06c0.12-0.04,0.2-0.11,0.24-0.2c0.04-0.09,0.07-0.21,0.07-0.36
				v-3.47c0-0.12-0.03-0.24-0.09-0.36c-0.06-0.12-0.13-0.22-0.23-0.29c-0.07-0.05-0.15-0.09-0.25-0.12
				c-0.1-0.03-0.21-0.05-0.33-0.07v-0.43l2.6-0.15l0.08,0.09v0.86h0.02c0.1-0.1,0.22-0.22,0.37-0.36c0.15-0.14,0.28-0.25,0.4-0.34
				c0.13-0.1,0.31-0.18,0.53-0.24c0.22-0.07,0.45-0.1,0.7-0.1c0.59,0,1.03,0.18,1.33,0.55c0.3,0.37,0.44,0.85,0.44,1.46v2.92
				c0,0.15,0.02,0.26,0.06,0.35c0.04,0.09,0.11,0.16,0.22,0.21c0.06,0.03,0.13,0.06,0.22,0.08c0.09,0.03,0.18,0.05,0.29,0.06V34.37z
				"/>
			<path class="st1" d="M47.16,40.33c0.23,0.17,0.42,0.39,0.57,0.66c0.14,0.26,0.22,0.57,0.22,0.93c0,0.43-0.08,0.79-0.25,1.09
				c-0.17,0.3-0.4,0.53-0.71,0.7c-0.33,0.18-0.7,0.31-1.13,0.39c-0.43,0.08-0.93,0.11-1.5,0.11h-4.01v-0.46
				c0.11-0.01,0.25-0.03,0.42-0.05c0.17-0.02,0.29-0.05,0.36-0.08c0.13-0.06,0.23-0.14,0.27-0.24c0.05-0.1,0.07-0.22,0.07-0.38
				v-5.95c0-0.14-0.02-0.26-0.06-0.36c-0.04-0.1-0.14-0.18-0.29-0.25c-0.11-0.05-0.24-0.09-0.39-0.13
				c-0.15-0.03-0.28-0.06-0.39-0.08v-0.46h4.2c1.06,0,1.82,0.16,2.29,0.48c0.47,0.32,0.7,0.79,0.7,1.41c0,0.29-0.05,0.54-0.16,0.75
				c-0.11,0.22-0.26,0.4-0.45,0.56c-0.18,0.15-0.39,0.27-0.64,0.38c-0.25,0.11-0.51,0.2-0.79,0.27v0.11
				c0.28,0.03,0.58,0.1,0.88,0.21C46.67,40.02,46.94,40.16,47.16,40.33z M45.41,37.78c0-0.47-0.12-0.83-0.36-1.1
				c-0.24-0.26-0.6-0.39-1.09-0.39c-0.07,0-0.16,0-0.27,0.01c-0.11,0.01-0.21,0.01-0.29,0.01v3.13h0.28c0.59,0,1.02-0.15,1.3-0.45
				C45.27,38.7,45.41,38.29,45.41,37.78z M45.79,41.84c0-0.59-0.16-1.04-0.48-1.35c-0.32-0.31-0.78-0.47-1.38-0.47
				c-0.07,0-0.16,0-0.28,0.01c-0.11,0.01-0.2,0.01-0.25,0.01v3.1c0.03,0.15,0.13,0.27,0.3,0.37c0.17,0.1,0.38,0.15,0.62,0.15
				c0.43,0,0.78-0.16,1.05-0.48C45.66,42.86,45.79,42.42,45.79,41.84z"/>
			<path class="st1" d="M54.8,39c0.27,0.27,0.47,0.6,0.61,0.98c0.14,0.38,0.21,0.79,0.21,1.24c0,0.44-0.07,0.86-0.21,1.25
				c-0.14,0.39-0.34,0.73-0.61,1c-0.29,0.3-0.63,0.53-1.03,0.68c-0.4,0.16-0.85,0.24-1.36,0.24c-0.44,0-0.85-0.07-1.22-0.21
				c-0.37-0.14-0.7-0.35-0.99-0.63c-0.28-0.27-0.49-0.59-0.65-0.99c-0.16-0.39-0.24-0.83-0.24-1.31c0-0.48,0.07-0.9,0.21-1.27
				c0.14-0.37,0.35-0.7,0.63-0.99c0.27-0.28,0.6-0.49,0.99-0.65c0.39-0.15,0.83-0.23,1.32-0.23c0.51,0,0.96,0.08,1.34,0.23
				C54.2,38.5,54.53,38.72,54.8,39z M53.41,43.12c0.08-0.22,0.14-0.49,0.18-0.81c0.04-0.32,0.06-0.69,0.06-1.11
				c0-0.28-0.02-0.6-0.05-0.95c-0.04-0.36-0.09-0.64-0.16-0.85c-0.09-0.25-0.21-0.45-0.36-0.59c-0.15-0.14-0.35-0.21-0.59-0.21
				c-0.26,0-0.46,0.08-0.62,0.23c-0.15,0.15-0.27,0.36-0.36,0.6c-0.08,0.23-0.13,0.49-0.16,0.79c-0.03,0.3-0.04,0.62-0.04,0.95
				c0,0.43,0.01,0.79,0.04,1.08c0.03,0.28,0.09,0.57,0.19,0.85c0.08,0.25,0.2,0.44,0.36,0.58c0.16,0.14,0.35,0.21,0.59,0.21
				c0.22,0,0.4-0.07,0.56-0.2C53.2,43.58,53.32,43.38,53.41,43.12z"/>
			<path class="st1" d="M63.01,38.73c-0.16,0.03-0.32,0.1-0.48,0.2c-0.15,0.11-0.28,0.27-0.38,0.5c-0.31,0.72-0.63,1.49-0.96,2.31
				c-0.33,0.82-0.7,1.7-1.1,2.65c-0.22,0.53-0.44,0.96-0.65,1.27c-0.21,0.32-0.41,0.56-0.59,0.73c-0.17,0.16-0.35,0.27-0.52,0.35
				c-0.17,0.07-0.34,0.11-0.52,0.11c-0.34,0-0.62-0.1-0.84-0.32c-0.21-0.21-0.32-0.45-0.32-0.71c0-0.11,0.01-0.21,0.04-0.31
				c0.02-0.1,0.07-0.19,0.15-0.3c0.06-0.09,0.15-0.16,0.27-0.22c0.12-0.06,0.26-0.09,0.41-0.09c0.2,0,0.4,0.08,0.58,0.23
				c0.18,0.15,0.38,0.37,0.58,0.64c0.12-0.13,0.27-0.33,0.44-0.59c0.18-0.26,0.31-0.53,0.39-0.8c-0.43-0.99-0.81-1.85-1.15-2.58
				c-0.33-0.73-0.71-1.54-1.12-2.44c-0.09-0.19-0.21-0.34-0.36-0.44c-0.15-0.11-0.31-0.17-0.48-0.19v-0.43h3.33v0.43
				c-0.12,0-0.27,0.03-0.43,0.09c-0.16,0.06-0.24,0.13-0.24,0.21c0,0.03,0.01,0.07,0.02,0.1c0.01,0.04,0.03,0.09,0.06,0.16
				c0.12,0.28,0.3,0.66,0.52,1.16c0.23,0.49,0.49,1.07,0.79,1.73c0.22-0.56,0.42-1.05,0.57-1.45c0.16-0.41,0.31-0.8,0.46-1.2
				c0.04-0.1,0.06-0.18,0.06-0.23c0.01-0.06,0.01-0.1,0.01-0.12c0-0.07-0.03-0.13-0.1-0.19c-0.06-0.05-0.14-0.1-0.23-0.14
				c-0.09-0.04-0.18-0.07-0.26-0.09c-0.08-0.02-0.15-0.03-0.21-0.04v-0.43h2.25V38.73z"/>
			<path class="st1" d="M66.17,44.4c-0.35,0-0.7-0.06-1.03-0.17c-0.34-0.11-0.6-0.23-0.78-0.36l-0.16,0.4h-0.42l-0.07-2.22h0.4
				c0.05,0.18,0.14,0.38,0.27,0.6c0.13,0.22,0.27,0.43,0.44,0.6c0.17,0.18,0.37,0.33,0.59,0.45c0.22,0.12,0.45,0.18,0.7,0.18
				c0.33,0,0.58-0.07,0.74-0.21c0.16-0.14,0.24-0.36,0.24-0.65c0-0.16-0.04-0.29-0.11-0.39c-0.07-0.1-0.17-0.19-0.3-0.27
				c-0.14-0.08-0.3-0.15-0.47-0.2c-0.17-0.06-0.38-0.12-0.62-0.2c-0.25-0.08-0.46-0.16-0.63-0.24c-0.18-0.08-0.36-0.21-0.55-0.38
				c-0.16-0.15-0.29-0.34-0.39-0.56c-0.1-0.22-0.15-0.48-0.15-0.78c0-0.56,0.21-1.01,0.64-1.36c0.43-0.35,0.99-0.52,1.69-0.52
				c0.33,0,0.63,0.04,0.91,0.11c0.28,0.07,0.51,0.15,0.7,0.24l0.11-0.35h0.41l0.09,2.03h-0.38c-0.13-0.41-0.34-0.77-0.65-1.07
				c-0.31-0.3-0.64-0.45-1-0.45c-0.28,0-0.5,0.06-0.66,0.19c-0.16,0.13-0.24,0.3-0.24,0.53c0,0.3,0.12,0.52,0.35,0.65
				c0.23,0.13,0.56,0.26,0.98,0.38c0.65,0.18,1.12,0.43,1.42,0.75c0.3,0.32,0.45,0.72,0.45,1.21c0,0.65-0.23,1.16-0.7,1.51
				C67.52,44.23,66.92,44.4,66.17,44.4z"/>
		</g>
	</g>
</g>
<g id="perrito_1">
</g>
<g id="perrito_2">
</g>
<g id="fondo">
	<g>
		<g>
			<path class="st1" d="M91.92,72.85c-4.51-4.95-7.67-10.67-9.29-17.24c-1.06-4.32-4.11-6.19-8.23-6.51
				c-1.27-0.1-2.55-0.05-3.83-0.06c-2.54-0.01-4.4,1.23-5.73,3.27c-0.84,1.3-1.9,2.12-3.41,2.47c-1.61,0.38-3.18,0.91-4.77,1.35
				c-1.15,0.32-1.33,0.75-0.88,1.82c0.46,1.1,0.85,2.23,1.21,3.37c0.71,2.27,1.71,3.18,4.08,3.38c1.26,0.11,2.55,0.1,3.81,0.03
				c1.75-0.09,2.8,0.75,2.86,2.5c0.02,0.61-0.03,1.23-0.13,1.83c-0.21,1.29-0.51,1.51-1.84,1.51c-0.13,0-0.25,0-0.51,0
				c0.25,0.48,0.47,0.89,0.71,1.35c-0.76,0.34-1.38-0.23-2.04-0.46c-0.7,1.33-0.8,2.98,1.41,4.13c-0.65,0.13-1.16,0.23-1.68,0.33
				c-0.04,0.06-0.09,0.12-0.13,0.18c0.45,0.32,0.91,0.63,1.31,0.92c-0.84,1.33-1.75,2.76-2.68,4.23c0.3,0.15,0.49,0.25,0.74,0.38
				c-0.22,0.73-0.44,1.46-0.68,2.27c0.28-0.13,0.49-0.23,0.72-0.33c0,0.76-0.16,1.54,0.03,2.24c0.39,1.39,0.97,2.73,1.46,4.1
				c0.47,1.32,0.84,2.63,1.96,3.67c0.22,0.2,0.42,0.42,0.61,0.64c1.29-0.39,2.55-0.85,3.77-1.36c-0.14-0.82-0.31-1.63-0.52-2.45
				c-0.4-1.59-0.54-3.25-0.72-4.88c0.62,2.09,1.37,4.15,1.83,6.27c0.05,0.24,0.09,0.49,0.14,0.73
				C80.43,88.6,87.68,81.59,91.92,72.85z M69.77,55.4c-0.74,0.09-1.49,0.18-2.41,0.29c-0.02-0.41-0.06-0.89-0.06-1.37
				c0-0.4,0.22-0.59,0.59-0.36c0.67,0.41,1.32,0.85,1.97,1.28C69.84,55.29,69.81,55.34,69.77,55.4z M79.9,57.79
				c-1.41,1.53-2.64,3.24-3.91,4.89c-0.76,0.99-1.2,1.05-2.07,0.13c-0.1-0.11-0.2-0.23-0.28-0.36c-0.91-1.35-1.63-5.13-1.15-7.28
				c0.02,0.33,0.03,0.5,0.04,0.67c0.14,2.04,0.76,3.96,1.66,5.77c0.56,1.12,1.12,1.06,1.82,0.07c0.97-1.37,1.97-2.73,3.09-3.98
				c1.56-1.75,1.74-3.82,0.3-5.6c-0.33-0.4-0.79-0.7-1.19-1.05C80.59,51.7,82.01,55.5,79.9,57.79z"/>
		</g>
		<g>
			<path class="st2" d="M91.92,72.85c-4.51-4.95-7.67-10.67-9.29-17.24c-1.06-4.32-4.11-6.19-8.23-6.51
				c-1.27-0.1-2.55-0.05-3.83-0.06c-2.54-0.01-4.4,1.23-5.73,3.27c-0.84,1.3-1.9,2.12-3.41,2.47c-1.61,0.38-3.18,0.91-4.77,1.35
				c-1.15,0.32-1.33,0.75-0.88,1.82c0.46,1.1,0.85,2.23,1.21,3.37c0.71,2.27,1.71,3.18,4.08,3.38c1.26,0.11,2.55,0.1,3.81,0.03
				c1.75-0.09,2.8,0.75,2.86,2.5c0.02,0.61-0.03,1.23-0.13,1.83c-0.21,1.29-0.51,1.51-1.84,1.51c-0.13,0-0.25,0-0.51,0
				c0.25,0.48,0.47,0.89,0.71,1.35c-0.76,0.34-1.38-0.23-2.04-0.46c-0.7,1.33-0.8,2.98,1.41,4.13c-0.65,0.13-1.16,0.23-1.68,0.33
				c-0.04,0.06-0.09,0.12-0.13,0.18c0.45,0.32,0.91,0.63,1.31,0.92c-0.84,1.33-1.75,2.76-2.68,4.23c0.3,0.15,0.49,0.25,0.74,0.38
				c-0.22,0.73-0.44,1.46-0.68,2.27c0.28-0.13,0.49-0.23,0.72-0.33c0,0.76-0.16,1.54,0.03,2.24c0.39,1.39,0.97,2.73,1.46,4.1
				c0.47,1.32,0.84,2.63,1.96,3.67c0.22,0.2,0.42,0.42,0.61,0.64c1.29-0.39,2.55-0.85,3.77-1.36c-0.14-0.82-0.31-1.63-0.52-2.45
				c-0.4-1.59-0.54-3.25-0.72-4.88c0.62,2.09,1.37,4.15,1.83,6.27c0.05,0.24,0.09,0.49,0.14,0.73
				C80.43,88.6,87.68,81.59,91.92,72.85z M69.77,55.4c-0.74,0.09-1.49,0.18-2.41,0.29c-0.02-0.41-0.06-0.89-0.06-1.37
				c0-0.4,0.22-0.59,0.59-0.36c0.67,0.41,1.32,0.85,1.97,1.28C69.84,55.29,69.81,55.34,69.77,55.4z M79.9,57.79
				c-1.41,1.53-2.64,3.24-3.91,4.89c-0.76,0.99-1.2,1.05-2.07,0.13c-0.1-0.11-0.2-0.23-0.28-0.36c-0.91-1.35-1.63-5.13-1.15-7.28
				c0.02,0.33,0.03,0.5,0.04,0.67c0.14,2.04,0.76,3.96,1.66,5.77c0.56,1.12,1.12,1.06,1.82,0.07c0.97-1.37,1.97-2.73,3.09-3.98
				c1.56-1.75,1.74-3.82,0.3-5.6c-0.33-0.4-0.79-0.7-1.19-1.05C80.59,51.7,82.01,55.5,79.9,57.79z"/>
		</g>
	</g>
</g>
<g id="fondo_2">
	<g>
		<g>
			<path class="st1" d="M53.34,56.14c-1.59-0.44-3.16-0.97-4.77-1.35c-1.51-0.36-2.57-1.18-3.41-2.47
				c-1.33-2.04-3.19-3.29-5.73-3.27c-1.28,0.01-2.56-0.04-3.83,0.06c-4.12,0.32-7.17,2.19-8.23,6.51
				c-1.62,6.57-4.78,12.29-9.29,17.24c4.24,8.75,11.49,15.75,20.41,19.68c0.05-0.24,0.09-0.49,0.14-0.73
				c0.46-2.12,1.21-4.18,1.83-6.27c-0.17,1.63-0.31,3.28-0.72,4.88c-0.21,0.81-0.37,1.63-0.52,2.45c1.23,0.51,2.49,0.97,3.77,1.36
				c0.19-0.22,0.39-0.44,0.61-0.64c1.12-1.04,1.49-2.35,1.96-3.67c0.49-1.37,1.07-2.71,1.46-4.1c0.19-0.69,0.03-1.48,0.03-2.24
				c0.23,0.11,0.45,0.21,0.72,0.33c-0.25-0.81-0.46-1.54-0.68-2.27c0.25-0.13,0.45-0.23,0.74-0.38c-0.93-1.47-1.84-2.9-2.68-4.23
				c0.41-0.29,0.86-0.6,1.31-0.92c-0.04-0.06-0.09-0.12-0.13-0.18c-0.52-0.1-1.03-0.2-1.68-0.33c2.21-1.15,2.11-2.8,1.41-4.13
				c-0.66,0.24-1.28,0.8-2.04,0.46c0.24-0.45,0.45-0.86,0.71-1.35c-0.26,0-0.39,0-0.51,0c-1.32,0-1.62-0.22-1.84-1.51
				c-0.1-0.6-0.15-1.22-0.13-1.83c0.06-1.75,1.11-2.6,2.86-2.5c1.27,0.07,2.55,0.08,3.81-0.03c2.37-0.2,3.37-1.11,4.08-3.38
				c0.35-1.14,0.74-2.27,1.21-3.37C54.67,56.89,54.49,56.45,53.34,56.14z M36.36,62.46c-0.09,0.13-0.18,0.25-0.28,0.36
				c-0.87,0.92-1.31,0.86-2.07-0.13c-1.27-1.66-2.5-3.36-3.91-4.89c-2.1-2.29-0.68-6.09,1.7-6.73c-0.4,0.35-0.86,0.64-1.19,1.05
				c-1.45,1.78-1.26,3.85,0.3,5.6c1.11,1.25,2.12,2.61,3.09,3.98c0.7,0.99,1.26,1.05,1.82-0.07c0.9-1.81,1.52-3.73,1.66-5.77
				c0.01-0.17,0.02-0.35,0.04-0.67C37.99,57.33,37.27,61.11,36.36,62.46z M42.64,55.69c-0.93-0.11-1.67-0.2-2.41-0.29
				c-0.03-0.05-0.06-0.11-0.09-0.16c0.66-0.43,1.3-0.87,1.97-1.28c0.37-0.23,0.59-0.04,0.59,0.36C42.7,54.8,42.66,55.28,42.64,55.69
				z"/>
		</g>
		<g>
			<path class="st2" d="M53.34,56.14c-1.59-0.44-3.16-0.97-4.77-1.35c-1.51-0.36-2.57-1.18-3.41-2.47
				c-1.33-2.04-3.19-3.29-5.73-3.27c-1.28,0.01-2.56-0.04-3.83,0.06c-4.12,0.32-7.17,2.19-8.23,6.51
				c-1.62,6.57-4.78,12.29-9.29,17.24c4.24,8.75,11.49,15.75,20.41,19.68c0.05-0.24,0.09-0.49,0.14-0.73
				c0.46-2.12,1.21-4.18,1.83-6.27c-0.17,1.63-0.31,3.28-0.72,4.88c-0.21,0.81-0.37,1.63-0.52,2.45c1.23,0.51,2.49,0.97,3.77,1.36
				c0.19-0.22,0.39-0.44,0.61-0.64c1.12-1.04,1.49-2.35,1.96-3.67c0.49-1.37,1.07-2.71,1.46-4.1c0.19-0.69,0.03-1.48,0.03-2.24
				c0.23,0.11,0.45,0.21,0.72,0.33c-0.25-0.81-0.46-1.54-0.68-2.27c0.25-0.13,0.45-0.23,0.74-0.38c-0.93-1.47-1.84-2.9-2.68-4.23
				c0.41-0.29,0.86-0.6,1.31-0.92c-0.04-0.06-0.09-0.12-0.13-0.18c-0.52-0.1-1.03-0.2-1.68-0.33c2.21-1.15,2.11-2.8,1.41-4.13
				c-0.66,0.24-1.28,0.8-2.04,0.46c0.24-0.45,0.45-0.86,0.71-1.35c-0.26,0-0.39,0-0.51,0c-1.32,0-1.62-0.22-1.84-1.51
				c-0.1-0.6-0.15-1.22-0.13-1.83c0.06-1.75,1.11-2.6,2.86-2.5c1.27,0.07,2.55,0.08,3.81-0.03c2.37-0.2,3.37-1.11,4.08-3.38
				c0.35-1.14,0.74-2.27,1.21-3.37C54.67,56.89,54.49,56.45,53.34,56.14z M36.36,62.46c-0.09,0.13-0.18,0.25-0.28,0.36
				c-0.87,0.92-1.31,0.86-2.07-0.13c-1.27-1.66-2.5-3.36-3.91-4.89c-2.1-2.29-0.68-6.09,1.7-6.73c-0.4,0.35-0.86,0.64-1.19,1.05
				c-1.45,1.78-1.26,3.85,0.3,5.6c1.11,1.25,2.12,2.61,3.09,3.98c0.7,0.99,1.26,1.05,1.82-0.07c0.9-1.81,1.52-3.73,1.66-5.77
				c0.01-0.17,0.02-0.35,0.04-0.67C37.99,57.33,37.27,61.11,36.36,62.46z M42.64,55.69c-0.93-0.11-1.67-0.2-2.41-0.29
				c-0.03-0.05-0.06-0.11-0.09-0.16c0.66-0.43,1.3-0.87,1.97-1.28c0.37-0.23,0.59-0.04,0.59,0.36C42.7,54.8,42.66,55.28,42.64,55.69
				z"/>
		</g>
	</g>
</g>
</svg>
