<?xml version="1.0" encoding="UTF-8" standalone="no"?>
<svg
   width="16"
   height="16"
   fill="currentColor"
   class="bi bi-youtube"
   viewBox="0 0 16 16"
   version="1.1"
   id="svg1384"
   sodipodi:docname="logoGBchico2.svg"
   inkscape:version="1.1.2 (b8e25be833, 2022-02-05)"
   xmlns:inkscape="http://www.inkscape.org/namespaces/inkscape"
   xmlns:sodipodi="http://sodipodi.sourceforge.net/DTD/sodipodi-0.dtd"
   xmlns="http://www.w3.org/2000/svg"
   xmlns:svg="http://www.w3.org/2000/svg">
  <defs
     id="defs1388" />
  <sodipodi:namedview
     id="namedview1386"
     pagecolor="#ffffff"
     bordercolor="#111111"
     borderopacity="1"
     inkscape:pageshadow="0"
     inkscape:pageopacity="0"
     inkscape:pagecheckerboard="1"
     showgrid="false"
     inkscape:zoom="32"
     inkscape:cx="4.640625"
     inkscape:cy="8.515625"
     inkscape:window-width="1920"
     inkscape:window-height="1001"
     inkscape:window-x="-9"
     inkscape:window-y="-9"
     inkscape:window-maximized="1"
     inkscape:current-layer="g4034" />
  <g
     id="Layer_1"
     transform="matrix(0.04145977,0,0,0.04145977,-4.3494043,-9.346191)"
     style="fill:#ffffff">
    <g
       id="fondo_00000155837072356433750500000006440106558878173841_"
       transform="matrix(4.6171059,0,0,4.6171059,43.443741,163.55112)">
      <circle
         class="st0"
         cx="55"
         cy="55"
         r="41"
         id="circle4009" />
    </g>
    <g
       id="Layer_1-5"
       transform="matrix(4.6171059,0,0,4.6171059,43.443741,163.55112)"
       style="fill:#000000">
      <g
         id="g4034"
         style="fill:#000000">
        <g
           id="g4032"
           style="fill:#dda0dd;fill-opacity:1">
          <path
             class="st1"
             d="m 41.88,30.94 c -0.11,0.01 -0.21,0.03 -0.3,0.04 -0.09,0.02 -0.2,0.05 -0.33,0.1 -0.15,0.05 -0.25,0.14 -0.29,0.26 -0.04,0.12 -0.07,0.24 -0.07,0.38 v 0.98 c 0,0.2 0,0.36 0.01,0.48 0,0.12 0.01,0.27 0.02,0.45 -0.36,0.24 -0.9,0.46 -1.61,0.67 -0.71,0.21 -1.36,0.32 -1.96,0.32 -0.56,0 -1.08,-0.09 -1.57,-0.28 -0.49,-0.19 -0.92,-0.47 -1.29,-0.84 -0.37,-0.37 -0.66,-0.83 -0.87,-1.38 -0.21,-0.55 -0.32,-1.18 -0.32,-1.88 0,-0.66 0.1,-1.27 0.3,-1.83 0.2,-0.56 0.49,-1.04 0.87,-1.45 0.37,-0.4 0.82,-0.71 1.35,-0.93 0.53,-0.22 1.12,-0.33 1.77,-0.33 0.44,0 0.85,0.06 1.22,0.18 0.37,0.12 0.68,0.25 0.93,0.38 l 0.34,-0.33 h 0.47 l 0.05,3.08 h -0.5 c -0.28,-0.93 -0.61,-1.62 -0.99,-2.06 -0.38,-0.45 -0.87,-0.67 -1.46,-0.67 -0.7,0 -1.23,0.33 -1.61,1 -0.38,0.67 -0.57,1.59 -0.57,2.76 0,1.24 0.19,2.22 0.56,2.92 0.37,0.7 0.9,1.05 1.58,1.05 0.32,0 0.6,-0.05 0.85,-0.16 0.25,-0.11 0.44,-0.23 0.58,-0.37 v -1.72 c 0,-0.14 -0.02,-0.26 -0.07,-0.36 -0.05,-0.1 -0.14,-0.18 -0.28,-0.25 -0.11,-0.06 -0.24,-0.1 -0.41,-0.14 -0.16,-0.04 -0.3,-0.06 -0.41,-0.08 v -0.46 h 4.01 z"
             id="path4012"
             style="fill:#dda0dd;fill-opacity:1" />
          <path
             class="st1"
             d="m 48.3,29.17 c 0.27,0.27 0.47,0.6 0.61,0.98 0.14,0.38 0.21,0.79 0.21,1.24 0,0.44 -0.07,0.86 -0.21,1.25 -0.14,0.39 -0.34,0.73 -0.61,1 -0.29,0.3 -0.63,0.53 -1.03,0.68 -0.4,0.16 -0.85,0.24 -1.36,0.24 -0.44,0 -0.85,-0.07 -1.22,-0.21 -0.37,-0.14 -0.7,-0.35 -0.99,-0.63 -0.28,-0.27 -0.49,-0.59 -0.65,-0.99 -0.16,-0.39 -0.24,-0.83 -0.24,-1.31 0,-0.48 0.07,-0.9 0.21,-1.27 0.14,-0.37 0.35,-0.7 0.63,-0.99 0.27,-0.28 0.6,-0.49 0.99,-0.65 0.39,-0.15 0.83,-0.23 1.32,-0.23 0.51,0 0.96,0.08 1.34,0.23 0.39,0.16 0.72,0.38 1,0.66 z m -1.39,4.12 c 0.08,-0.22 0.14,-0.49 0.18,-0.81 0.04,-0.32 0.06,-0.69 0.06,-1.11 0,-0.28 -0.02,-0.6 -0.05,-0.95 -0.04,-0.36 -0.09,-0.64 -0.16,-0.85 -0.09,-0.25 -0.21,-0.45 -0.36,-0.59 -0.15,-0.14 -0.35,-0.21 -0.58,-0.21 -0.26,0 -0.46,0.08 -0.62,0.23 -0.15,0.15 -0.27,0.36 -0.36,0.6 -0.08,0.23 -0.13,0.49 -0.16,0.8 -0.03,0.3 -0.04,0.62 -0.04,0.95 0,0.43 0.01,0.79 0.04,1.07 0.03,0.28 0.09,0.57 0.19,0.85 0.08,0.25 0.2,0.44 0.36,0.58 0.16,0.14 0.35,0.21 0.59,0.21 0.22,0 0.4,-0.07 0.56,-0.2 0.13,-0.11 0.25,-0.31 0.35,-0.57 z"
             id="path4014"
             style="fill:#dda0dd;fill-opacity:1" />
          <path
             class="st1"
             d="m 53.68,34.37 h -3.43 v -0.43 c 0.09,-0.01 0.19,-0.02 0.28,-0.03 0.09,-0.01 0.17,-0.03 0.24,-0.06 0.12,-0.05 0.2,-0.12 0.24,-0.21 0.04,-0.09 0.06,-0.21 0.06,-0.35 v -6.6 c 0,-0.15 -0.03,-0.29 -0.08,-0.42 -0.06,-0.13 -0.13,-0.23 -0.23,-0.29 -0.07,-0.05 -0.18,-0.1 -0.33,-0.15 -0.15,-0.05 -0.28,-0.08 -0.39,-0.08 v -0.43 l 2.74,-0.15 0.08,0.1 v 7.96 c 0,0.15 0.02,0.27 0.07,0.36 0.05,0.09 0.12,0.16 0.23,0.21 0.07,0.04 0.15,0.07 0.23,0.1 0.08,0.03 0.18,0.05 0.28,0.06 v 0.41 z"
             id="path4016"
             style="fill:#dda0dd;fill-opacity:1" />
          <path
             class="st1"
             d="m 61.74,34.25 -2.68,0.17 -0.08,-0.08 v -0.55 l -0.04,-0.01 c -0.18,0.21 -0.42,0.39 -0.72,0.55 -0.3,0.16 -0.61,0.24 -0.92,0.24 -0.73,0 -1.34,-0.3 -1.81,-0.89 -0.47,-0.6 -0.71,-1.37 -0.71,-2.31 0,-0.84 0.27,-1.56 0.8,-2.16 0.53,-0.6 1.17,-0.9 1.93,-0.9 0.3,0 0.58,0.04 0.84,0.11 0.26,0.07 0.47,0.16 0.62,0.26 v -1.95 c 0,-0.15 -0.03,-0.28 -0.08,-0.41 -0.05,-0.13 -0.13,-0.23 -0.22,-0.3 -0.11,-0.09 -0.25,-0.15 -0.42,-0.19 -0.17,-0.04 -0.34,-0.06 -0.51,-0.08 v -0.43 l 2.94,-0.15 0.08,0.1 v 7.81 c 0,0.15 0.02,0.28 0.07,0.38 0.04,0.1 0.12,0.18 0.22,0.24 0.08,0.04 0.19,0.08 0.33,0.1 0.14,0.02 0.27,0.03 0.36,0.04 z m -2.77,-1.06 v -3.36 c -0.03,-0.09 -0.06,-0.19 -0.11,-0.3 -0.04,-0.11 -0.11,-0.22 -0.19,-0.32 -0.07,-0.08 -0.17,-0.16 -0.29,-0.22 -0.12,-0.06 -0.26,-0.1 -0.41,-0.1 -0.36,0 -0.66,0.22 -0.89,0.67 -0.23,0.45 -0.35,1.08 -0.35,1.9 0,0.32 0.02,0.61 0.06,0.87 0.04,0.26 0.11,0.49 0.22,0.7 0.1,0.21 0.24,0.38 0.4,0.49 0.16,0.12 0.36,0.18 0.59,0.18 0.22,0 0.4,-0.05 0.55,-0.14 0.16,-0.09 0.3,-0.22 0.42,-0.37 z"
             id="path4018"
             style="fill:#dda0dd;fill-opacity:1" />
          <path
             class="st1"
             d="m 68.48,32.95 c -0.13,0.23 -0.28,0.44 -0.46,0.64 -0.18,0.2 -0.38,0.37 -0.61,0.52 -0.24,0.15 -0.49,0.27 -0.74,0.34 -0.25,0.08 -0.53,0.12 -0.86,0.12 -0.54,0 -1,-0.08 -1.39,-0.25 -0.39,-0.17 -0.71,-0.39 -0.97,-0.67 -0.25,-0.28 -0.44,-0.61 -0.57,-1 -0.13,-0.38 -0.19,-0.8 -0.19,-1.25 0,-0.4 0.07,-0.79 0.2,-1.16 0.14,-0.37 0.33,-0.7 0.58,-0.99 0.25,-0.28 0.56,-0.51 0.93,-0.68 0.38,-0.17 0.8,-0.26 1.26,-0.26 0.51,0 0.93,0.07 1.25,0.2 0.33,0.13 0.6,0.32 0.81,0.56 0.21,0.23 0.36,0.49 0.45,0.8 0.09,0.31 0.14,0.63 0.14,0.97 v 0.39 h -3.68 c 0,0.81 0.14,1.43 0.43,1.86 0.29,0.42 0.74,0.64 1.37,0.64 0.34,0 0.65,-0.1 0.92,-0.31 0.27,-0.2 0.5,-0.46 0.7,-0.78 z M 66.4,30.69 c 0,-0.24 -0.01,-0.48 -0.03,-0.73 -0.02,-0.25 -0.06,-0.45 -0.11,-0.61 -0.06,-0.19 -0.15,-0.33 -0.25,-0.42 -0.1,-0.09 -0.24,-0.14 -0.41,-0.14 -0.28,0 -0.5,0.15 -0.67,0.46 -0.17,0.31 -0.26,0.8 -0.27,1.47 z"
             id="path4020"
             style="fill:#dda0dd;fill-opacity:1" />
          <path
             class="st1"
             d="m 76.71,34.37 h -3.27 v -0.43 c 0.07,-0.01 0.15,-0.02 0.25,-0.03 0.1,-0.01 0.17,-0.03 0.22,-0.06 0.08,-0.04 0.13,-0.11 0.16,-0.19 0.03,-0.08 0.05,-0.21 0.05,-0.37 V 30.5 c 0,-0.4 -0.07,-0.71 -0.2,-0.91 -0.14,-0.2 -0.34,-0.31 -0.6,-0.31 -0.15,0 -0.28,0.02 -0.41,0.07 -0.13,0.05 -0.25,0.12 -0.37,0.21 -0.11,0.08 -0.19,0.16 -0.25,0.24 -0.06,0.08 -0.12,0.16 -0.16,0.22 v 3.2 c 0,0.14 0.02,0.26 0.05,0.35 0.04,0.09 0.1,0.16 0.18,0.21 0.06,0.04 0.13,0.07 0.22,0.1 0.09,0.03 0.17,0.05 0.26,0.06 v 0.43 h -3.31 v -0.43 c 0.09,-0.01 0.18,-0.02 0.27,-0.03 0.09,-0.01 0.17,-0.03 0.24,-0.06 0.12,-0.04 0.2,-0.11 0.24,-0.2 0.04,-0.09 0.07,-0.21 0.07,-0.36 v -3.47 c 0,-0.12 -0.03,-0.24 -0.09,-0.36 C 70.2,29.34 70.13,29.24 70.03,29.17 69.96,29.12 69.88,29.08 69.78,29.05 69.68,29.02 69.57,29 69.45,28.98 v -0.43 l 2.6,-0.15 0.08,0.09 v 0.86 h 0.02 c 0.1,-0.1 0.22,-0.22 0.37,-0.36 0.15,-0.14 0.28,-0.25 0.4,-0.34 0.13,-0.1 0.31,-0.18 0.53,-0.24 0.22,-0.07 0.45,-0.1 0.7,-0.1 0.59,0 1.03,0.18 1.33,0.55 0.3,0.37 0.44,0.85 0.44,1.46 v 2.92 c 0,0.15 0.02,0.26 0.06,0.35 0.04,0.09 0.11,0.16 0.22,0.21 0.06,0.03 0.13,0.06 0.22,0.08 0.09,0.03 0.18,0.05 0.29,0.06 z"
             id="path4022"
             style="fill:#dda0dd;fill-opacity:1" />
          <path
             class="st1"
             d="m 47.16,40.33 c 0.23,0.17 0.42,0.39 0.57,0.66 0.14,0.26 0.22,0.57 0.22,0.93 0,0.43 -0.08,0.79 -0.25,1.09 -0.17,0.3 -0.4,0.53 -0.71,0.7 -0.33,0.18 -0.7,0.31 -1.13,0.39 -0.43,0.08 -0.93,0.11 -1.5,0.11 h -4.01 v -0.46 c 0.11,-0.01 0.25,-0.03 0.42,-0.05 0.17,-0.02 0.29,-0.05 0.36,-0.08 0.13,-0.06 0.23,-0.14 0.27,-0.24 0.05,-0.1 0.07,-0.22 0.07,-0.38 v -5.95 c 0,-0.14 -0.02,-0.26 -0.06,-0.36 -0.04,-0.1 -0.14,-0.18 -0.29,-0.25 -0.11,-0.05 -0.24,-0.09 -0.39,-0.13 -0.15,-0.03 -0.28,-0.06 -0.39,-0.08 v -0.46 h 4.2 c 1.06,0 1.82,0.16 2.29,0.48 0.47,0.32 0.7,0.79 0.7,1.41 0,0.29 -0.05,0.54 -0.16,0.75 -0.11,0.22 -0.26,0.4 -0.45,0.56 -0.18,0.15 -0.39,0.27 -0.64,0.38 -0.25,0.11 -0.51,0.2 -0.79,0.27 v 0.11 c 0.28,0.03 0.58,0.1 0.88,0.21 0.3,0.08 0.57,0.22 0.79,0.39 z m -1.75,-2.55 c 0,-0.47 -0.12,-0.83 -0.36,-1.1 -0.24,-0.26 -0.6,-0.39 -1.09,-0.39 -0.07,0 -0.16,0 -0.27,0.01 -0.11,0.01 -0.21,0.01 -0.29,0.01 v 3.13 h 0.28 c 0.59,0 1.02,-0.15 1.3,-0.45 0.29,-0.29 0.43,-0.7 0.43,-1.21 z m 0.38,4.06 c 0,-0.59 -0.16,-1.04 -0.48,-1.35 -0.32,-0.31 -0.78,-0.47 -1.38,-0.47 -0.07,0 -0.16,0 -0.28,0.01 -0.11,0.01 -0.2,0.01 -0.25,0.01 v 3.1 c 0.03,0.15 0.13,0.27 0.3,0.37 0.17,0.1 0.38,0.15 0.62,0.15 0.43,0 0.78,-0.16 1.05,-0.48 0.29,-0.32 0.42,-0.76 0.42,-1.34 z"
             id="path4024"
             style="fill:#dda0dd;fill-opacity:1" />
          <path
             class="st1"
             d="m 54.8,39 c 0.27,0.27 0.47,0.6 0.61,0.98 0.14,0.38 0.21,0.79 0.21,1.24 0,0.44 -0.07,0.86 -0.21,1.25 -0.14,0.39 -0.34,0.73 -0.61,1 -0.29,0.3 -0.63,0.53 -1.03,0.68 -0.4,0.16 -0.85,0.24 -1.36,0.24 -0.44,0 -0.85,-0.07 -1.22,-0.21 -0.37,-0.14 -0.7,-0.35 -0.99,-0.63 -0.28,-0.27 -0.49,-0.59 -0.65,-0.99 -0.16,-0.39 -0.24,-0.83 -0.24,-1.31 0,-0.48 0.07,-0.9 0.21,-1.27 0.14,-0.37 0.35,-0.7 0.63,-0.99 0.27,-0.28 0.6,-0.49 0.99,-0.65 0.39,-0.15 0.83,-0.23 1.32,-0.23 0.51,0 0.96,0.08 1.34,0.23 0.4,0.16 0.73,0.38 1,0.66 z m -1.39,4.12 c 0.08,-0.22 0.14,-0.49 0.18,-0.81 0.04,-0.32 0.06,-0.69 0.06,-1.11 0,-0.28 -0.02,-0.6 -0.05,-0.95 -0.04,-0.36 -0.09,-0.64 -0.16,-0.85 -0.09,-0.25 -0.21,-0.45 -0.36,-0.59 -0.15,-0.14 -0.35,-0.21 -0.59,-0.21 -0.26,0 -0.46,0.08 -0.62,0.23 -0.15,0.15 -0.27,0.36 -0.36,0.6 -0.08,0.23 -0.13,0.49 -0.16,0.79 -0.03,0.3 -0.04,0.62 -0.04,0.95 0,0.43 0.01,0.79 0.04,1.08 0.03,0.28 0.09,0.57 0.19,0.85 0.08,0.25 0.2,0.44 0.36,0.58 0.16,0.14 0.35,0.21 0.59,0.21 0.22,0 0.4,-0.07 0.56,-0.2 0.15,-0.11 0.27,-0.31 0.36,-0.57 z"
             id="path4026"
             style="fill:#dda0dd;fill-opacity:1" />
          <path
             class="st1"
             d="m 63.01,38.73 c -0.16,0.03 -0.32,0.1 -0.48,0.2 -0.15,0.11 -0.28,0.27 -0.38,0.5 -0.31,0.72 -0.63,1.49 -0.96,2.31 -0.33,0.82 -0.7,1.7 -1.1,2.65 -0.22,0.53 -0.44,0.96 -0.65,1.27 -0.21,0.32 -0.41,0.56 -0.59,0.73 -0.17,0.16 -0.35,0.27 -0.52,0.35 -0.17,0.07 -0.34,0.11 -0.52,0.11 -0.34,0 -0.62,-0.1 -0.84,-0.32 -0.21,-0.21 -0.32,-0.45 -0.32,-0.71 0,-0.11 0.01,-0.21 0.04,-0.31 0.02,-0.1 0.07,-0.19 0.15,-0.3 0.06,-0.09 0.15,-0.16 0.27,-0.22 0.12,-0.06 0.26,-0.09 0.41,-0.09 0.2,0 0.4,0.08 0.58,0.23 0.18,0.15 0.38,0.37 0.58,0.64 0.12,-0.13 0.27,-0.33 0.44,-0.59 0.18,-0.26 0.31,-0.53 0.39,-0.8 C 59.08,43.39 58.7,42.53 58.36,41.8 58.03,41.07 57.65,40.26 57.24,39.36 57.15,39.17 57.03,39.02 56.88,38.92 56.73,38.81 56.57,38.75 56.4,38.73 V 38.3 h 3.33 v 0.43 c -0.12,0 -0.27,0.03 -0.43,0.09 -0.16,0.06 -0.24,0.13 -0.24,0.21 0,0.03 0.01,0.07 0.02,0.1 0.01,0.04 0.03,0.09 0.06,0.16 0.12,0.28 0.3,0.66 0.52,1.16 0.23,0.49 0.49,1.07 0.79,1.73 0.22,-0.56 0.42,-1.05 0.57,-1.45 0.16,-0.41 0.31,-0.8 0.46,-1.2 0.04,-0.1 0.06,-0.18 0.06,-0.23 0.01,-0.06 0.01,-0.1 0.01,-0.12 0,-0.07 -0.03,-0.13 -0.1,-0.19 -0.06,-0.05 -0.14,-0.1 -0.23,-0.14 -0.09,-0.04 -0.18,-0.07 -0.26,-0.09 -0.08,-0.02 -0.15,-0.03 -0.21,-0.04 V 38.29 H 63 v 0.44 z"
             id="path4028"
             style="fill:#dda0dd;fill-opacity:1" />
          <path
             class="st1"
             d="m 66.17,44.4 c -0.35,0 -0.7,-0.06 -1.03,-0.17 C 64.8,44.12 64.54,44 64.36,43.87 l -0.16,0.4 h -0.42 l -0.07,-2.22 h 0.4 c 0.05,0.18 0.14,0.38 0.27,0.6 0.13,0.22 0.27,0.43 0.44,0.6 0.17,0.18 0.37,0.33 0.59,0.45 0.22,0.12 0.45,0.18 0.7,0.18 0.33,0 0.58,-0.07 0.74,-0.21 0.16,-0.14 0.24,-0.36 0.24,-0.65 0,-0.16 -0.04,-0.29 -0.11,-0.39 -0.07,-0.1 -0.17,-0.19 -0.3,-0.27 -0.14,-0.08 -0.3,-0.15 -0.47,-0.2 C 66.04,42.1 65.83,42.04 65.59,41.96 65.34,41.88 65.13,41.8 64.96,41.72 64.78,41.64 64.6,41.51 64.41,41.34 64.25,41.19 64.12,41 64.02,40.78 63.92,40.56 63.87,40.3 63.87,40 c 0,-0.56 0.21,-1.01 0.64,-1.36 0.43,-0.35 0.99,-0.52 1.69,-0.52 0.33,0 0.63,0.04 0.91,0.11 0.28,0.07 0.51,0.15 0.7,0.24 l 0.11,-0.35 h 0.41 l 0.09,2.03 h -0.38 c -0.13,-0.41 -0.34,-0.77 -0.65,-1.07 -0.31,-0.3 -0.64,-0.45 -1,-0.45 -0.28,0 -0.5,0.06 -0.66,0.19 -0.16,0.13 -0.24,0.3 -0.24,0.53 0,0.3 0.12,0.52 0.35,0.65 0.23,0.13 0.56,0.26 0.98,0.38 0.65,0.18 1.12,0.43 1.42,0.75 0.3,0.32 0.45,0.72 0.45,1.21 0,0.65 -0.23,1.16 -0.7,1.51 -0.47,0.38 -1.07,0.55 -1.82,0.55 z"
             id="path4030"
             style="fill:#dda0dd;fill-opacity:1" />
        </g>
      </g>
    </g>
    <g
       id="fondo"
       transform="matrix(4.6171059,0,0,4.6171059,43.443741,163.55112)"
       style="fill:#dda0dd;fill-opacity:1">
      <g
         id="g4047"
         style="fill:#dda0dd;fill-opacity:1">
        <g
           id="g4041"
           style="fill:#dda0dd;fill-opacity:1">
          <path
             class="st1"
             d="M 91.92,72.85 C 87.41,67.9 84.25,62.18 82.63,55.61 81.57,51.29 78.52,49.42 74.4,49.1 73.13,49 71.85,49.05 70.57,49.04 c -2.54,-0.01 -4.4,1.23 -5.73,3.27 -0.84,1.3 -1.9,2.12 -3.41,2.47 -1.61,0.38 -3.18,0.91 -4.77,1.35 -1.15,0.32 -1.33,0.75 -0.88,1.82 0.46,1.1 0.85,2.23 1.21,3.37 0.71,2.27 1.71,3.18 4.08,3.38 1.26,0.11 2.55,0.1 3.81,0.03 1.75,-0.09 2.8,0.75 2.86,2.5 0.02,0.61 -0.03,1.23 -0.13,1.83 -0.21,1.29 -0.51,1.51 -1.84,1.51 -0.13,0 -0.25,0 -0.51,0 0.25,0.48 0.47,0.89 0.71,1.35 -0.76,0.34 -1.38,-0.23 -2.04,-0.46 -0.7,1.33 -0.8,2.98 1.41,4.13 -0.65,0.13 -1.16,0.23 -1.68,0.33 -0.04,0.06 -0.09,0.12 -0.13,0.18 0.45,0.32 0.91,0.63 1.31,0.92 -0.84,1.33 -1.75,2.76 -2.68,4.23 0.3,0.15 0.49,0.25 0.74,0.38 -0.22,0.73 -0.44,1.46 -0.68,2.27 0.28,-0.13 0.49,-0.23 0.72,-0.33 0,0.76 -0.16,1.54 0.03,2.24 0.39,1.39 0.97,2.73 1.46,4.1 0.47,1.32 0.84,2.63 1.96,3.67 0.22,0.2 0.42,0.42 0.61,0.64 1.29,-0.39 2.55,-0.85 3.77,-1.36 -0.14,-0.82 -0.31,-1.63 -0.52,-2.45 -0.4,-1.59 -0.54,-3.25 -0.72,-4.88 0.62,2.09 1.37,4.15 1.83,6.27 0.05,0.24 0.09,0.49 0.14,0.73 C 80.43,88.6 87.68,81.59 91.92,72.85 Z M 69.77,55.4 c -0.74,0.09 -1.49,0.18 -2.41,0.29 -0.02,-0.41 -0.06,-0.89 -0.06,-1.37 0,-0.4 0.22,-0.59 0.59,-0.36 0.67,0.41 1.32,0.85 1.97,1.28 -0.02,0.05 -0.05,0.1 -0.09,0.16 z m 10.13,2.39 c -1.41,1.53 -2.64,3.24 -3.91,4.89 -0.76,0.99 -1.2,1.05 -2.07,0.13 -0.1,-0.11 -0.2,-0.23 -0.28,-0.36 -0.91,-1.35 -1.63,-5.13 -1.15,-7.28 0.02,0.33 0.03,0.5 0.04,0.67 0.14,2.04 0.76,3.96 1.66,5.77 0.56,1.12 1.12,1.06 1.82,0.07 0.97,-1.37 1.97,-2.73 3.09,-3.98 1.56,-1.75 1.74,-3.82 0.3,-5.6 -0.33,-0.4 -0.79,-0.7 -1.19,-1.05 2.38,0.65 3.8,4.45 1.69,6.74 z"
             id="path4039"
             style="fill:#dda0dd;fill-opacity:1" />
        </g>
        <g
           id="g4045"
           style="fill:#dda0dd;fill-opacity:1">
          <path
             class="st2"
             d="M 91.92,72.85 C 87.41,67.9 84.25,62.18 82.63,55.61 81.57,51.29 78.52,49.42 74.4,49.1 73.13,49 71.85,49.05 70.57,49.04 c -2.54,-0.01 -4.4,1.23 -5.73,3.27 -0.84,1.3 -1.9,2.12 -3.41,2.47 -1.61,0.38 -3.18,0.91 -4.77,1.35 -1.15,0.32 -1.33,0.75 -0.88,1.82 0.46,1.1 0.85,2.23 1.21,3.37 0.71,2.27 1.71,3.18 4.08,3.38 1.26,0.11 2.55,0.1 3.81,0.03 1.75,-0.09 2.8,0.75 2.86,2.5 0.02,0.61 -0.03,1.23 -0.13,1.83 -0.21,1.29 -0.51,1.51 -1.84,1.51 -0.13,0 -0.25,0 -0.51,0 0.25,0.48 0.47,0.89 0.71,1.35 -0.76,0.34 -1.38,-0.23 -2.04,-0.46 -0.7,1.33 -0.8,2.98 1.41,4.13 -0.65,0.13 -1.16,0.23 -1.68,0.33 -0.04,0.06 -0.09,0.12 -0.13,0.18 0.45,0.32 0.91,0.63 1.31,0.92 -0.84,1.33 -1.75,2.76 -2.68,4.23 0.3,0.15 0.49,0.25 0.74,0.38 -0.22,0.73 -0.44,1.46 -0.68,2.27 0.28,-0.13 0.49,-0.23 0.72,-0.33 0,0.76 -0.16,1.54 0.03,2.24 0.39,1.39 0.97,2.73 1.46,4.1 0.47,1.32 0.84,2.63 1.96,3.67 0.22,0.2 0.42,0.42 0.61,0.64 1.29,-0.39 2.55,-0.85 3.77,-1.36 -0.14,-0.82 -0.31,-1.63 -0.52,-2.45 -0.4,-1.59 -0.54,-3.25 -0.72,-4.88 0.62,2.09 1.37,4.15 1.83,6.27 0.05,0.24 0.09,0.49 0.14,0.73 C 80.43,88.6 87.68,81.59 91.92,72.85 Z M 69.77,55.4 c -0.74,0.09 -1.49,0.18 -2.41,0.29 -0.02,-0.41 -0.06,-0.89 -0.06,-1.37 0,-0.4 0.22,-0.59 0.59,-0.36 0.67,0.41 1.32,0.85 1.97,1.28 -0.02,0.05 -0.05,0.1 -0.09,0.16 z m 10.13,2.39 c -1.41,1.53 -2.64,3.24 -3.91,4.89 -0.76,0.99 -1.2,1.05 -2.07,0.13 -0.1,-0.11 -0.2,-0.23 -0.28,-0.36 -0.91,-1.35 -1.63,-5.13 -1.15,-7.28 0.02,0.33 0.03,0.5 0.04,0.67 0.14,2.04 0.76,3.96 1.66,5.77 0.56,1.12 1.12,1.06 1.82,0.07 0.97,-1.37 1.97,-2.73 3.09,-3.98 1.56,-1.75 1.74,-3.82 0.3,-5.6 -0.33,-0.4 -0.79,-0.7 -1.19,-1.05 2.38,0.65 3.8,4.45 1.69,6.74 z"
             id="path4043"
             style="fill:#dda0dd;fill-opacity:1" />
        </g>
      </g>
    </g>
    <g
       id="fondo_2"
       transform="matrix(4.6171059,0,0,4.6171059,43.443741,163.55112)"
       style="fill:#dda0dd;fill-opacity:1">
      <g
         id="g4058"
         style="fill:#dda0dd;fill-opacity:1">
        <g
           id="g4052"
           style="fill:#dda0dd;fill-opacity:1">
          <path
             class="st1"
             d="M 53.34,56.14 C 51.75,55.7 50.18,55.17 48.57,54.79 47.06,54.43 46,53.61 45.16,52.32 c -1.33,-2.04 -3.19,-3.29 -5.73,-3.27 -1.28,0.01 -2.56,-0.04 -3.83,0.06 -4.12,0.32 -7.17,2.19 -8.23,6.51 -1.62,6.57 -4.78,12.29 -9.29,17.24 4.24,8.75 11.49,15.75 20.41,19.68 0.05,-0.24 0.09,-0.49 0.14,-0.73 0.46,-2.12 1.21,-4.18 1.83,-6.27 -0.17,1.63 -0.31,3.28 -0.72,4.88 -0.21,0.81 -0.37,1.63 -0.52,2.45 1.23,0.51 2.49,0.97 3.77,1.36 0.19,-0.22 0.39,-0.44 0.61,-0.64 1.12,-1.04 1.49,-2.35 1.96,-3.67 0.49,-1.37 1.07,-2.71 1.46,-4.1 0.19,-0.69 0.03,-1.48 0.03,-2.24 0.23,0.11 0.45,0.21 0.72,0.33 -0.25,-0.81 -0.46,-1.54 -0.68,-2.27 0.25,-0.13 0.45,-0.23 0.74,-0.38 -0.93,-1.47 -1.84,-2.9 -2.68,-4.23 0.41,-0.29 0.86,-0.6 1.31,-0.92 -0.04,-0.06 -0.09,-0.12 -0.13,-0.18 -0.52,-0.1 -1.03,-0.2 -1.68,-0.33 2.21,-1.15 2.11,-2.8 1.41,-4.13 -0.66,0.24 -1.28,0.8 -2.04,0.46 0.24,-0.45 0.45,-0.86 0.71,-1.35 -0.26,0 -0.39,0 -0.51,0 -1.32,0 -1.62,-0.22 -1.84,-1.51 -0.1,-0.6 -0.15,-1.22 -0.13,-1.83 0.06,-1.75 1.11,-2.6 2.86,-2.5 1.27,0.07 2.55,0.08 3.81,-0.03 2.37,-0.2 3.37,-1.11 4.08,-3.38 0.35,-1.14 0.74,-2.27 1.21,-3.37 0.46,-1.07 0.28,-1.51 -0.87,-1.82 z m -16.98,6.32 c -0.09,0.13 -0.18,0.25 -0.28,0.36 -0.87,0.92 -1.31,0.86 -2.07,-0.13 -1.27,-1.66 -2.5,-3.36 -3.91,-4.89 -2.1,-2.29 -0.68,-6.09 1.7,-6.73 -0.4,0.35 -0.86,0.64 -1.19,1.05 -1.45,1.78 -1.26,3.85 0.3,5.6 1.11,1.25 2.12,2.61 3.09,3.98 0.7,0.99 1.26,1.05 1.82,-0.07 0.9,-1.81 1.52,-3.73 1.66,-5.77 0.01,-0.17 0.02,-0.35 0.04,-0.67 0.47,2.14 -0.25,5.92 -1.16,7.27 z m 6.28,-6.77 c -0.93,-0.11 -1.67,-0.2 -2.41,-0.29 -0.03,-0.05 -0.06,-0.11 -0.09,-0.16 0.66,-0.43 1.3,-0.87 1.97,-1.28 0.37,-0.23 0.59,-0.04 0.59,0.36 0,0.48 -0.04,0.96 -0.06,1.37 z"
             id="path4050"
             style="fill:#dda0dd;fill-opacity:1" />
        </g>
        <g
           id="g4056"
           style="fill:#dda0dd;fill-opacity:1">
          <path
             class="st2"
             d="M 53.34,56.14 C 51.75,55.7 50.18,55.17 48.57,54.79 47.06,54.43 46,53.61 45.16,52.32 c -1.33,-2.04 -3.19,-3.29 -5.73,-3.27 -1.28,0.01 -2.56,-0.04 -3.83,0.06 -4.12,0.32 -7.17,2.19 -8.23,6.51 -1.62,6.57 -4.78,12.29 -9.29,17.24 4.24,8.75 11.49,15.75 20.41,19.68 0.05,-0.24 0.09,-0.49 0.14,-0.73 0.46,-2.12 1.21,-4.18 1.83,-6.27 -0.17,1.63 -0.31,3.28 -0.72,4.88 -0.21,0.81 -0.37,1.63 -0.52,2.45 1.23,0.51 2.49,0.97 3.77,1.36 0.19,-0.22 0.39,-0.44 0.61,-0.64 1.12,-1.04 1.49,-2.35 1.96,-3.67 0.49,-1.37 1.07,-2.71 1.46,-4.1 0.19,-0.69 0.03,-1.48 0.03,-2.24 0.23,0.11 0.45,0.21 0.72,0.33 -0.25,-0.81 -0.46,-1.54 -0.68,-2.27 0.25,-0.13 0.45,-0.23 0.74,-0.38 -0.93,-1.47 -1.84,-2.9 -2.68,-4.23 0.41,-0.29 0.86,-0.6 1.31,-0.92 -0.04,-0.06 -0.09,-0.12 -0.13,-0.18 -0.52,-0.1 -1.03,-0.2 -1.68,-0.33 2.21,-1.15 2.11,-2.8 1.41,-4.13 -0.66,0.24 -1.28,0.8 -2.04,0.46 0.24,-0.45 0.45,-0.86 0.71,-1.35 -0.26,0 -0.39,0 -0.51,0 -1.32,0 -1.62,-0.22 -1.84,-1.51 -0.1,-0.6 -0.15,-1.22 -0.13,-1.83 0.06,-1.75 1.11,-2.6 2.86,-2.5 1.27,0.07 2.55,0.08 3.81,-0.03 2.37,-0.2 3.37,-1.11 4.08,-3.38 0.35,-1.14 0.74,-2.27 1.21,-3.37 0.46,-1.07 0.28,-1.51 -0.87,-1.82 z m -16.98,6.32 c -0.09,0.13 -0.18,0.25 -0.28,0.36 -0.87,0.92 -1.31,0.86 -2.07,-0.13 -1.27,-1.66 -2.5,-3.36 -3.91,-4.89 -2.1,-2.29 -0.68,-6.09 1.7,-6.73 -0.4,0.35 -0.86,0.64 -1.19,1.05 -1.45,1.78 -1.26,3.85 0.3,5.6 1.11,1.25 2.12,2.61 3.09,3.98 0.7,0.99 1.26,1.05 1.82,-0.07 0.9,-1.81 1.52,-3.73 1.66,-5.77 0.01,-0.17 0.02,-0.35 0.04,-0.67 0.47,2.14 -0.25,5.92 -1.16,7.27 z m 6.28,-6.77 c -0.93,-0.11 -1.67,-0.2 -2.41,-0.29 -0.03,-0.05 -0.06,-0.11 -0.09,-0.16 0.66,-0.43 1.3,-0.87 1.97,-1.28 0.37,-0.23 0.59,-0.04 0.59,0.36 0,0.48 -0.04,0.96 -0.06,1.37 z"
             id="path4054"
             style="fill:#dda0dd;fill-opacity:1" />
        </g>
      </g>
    </g>
  </g>
</svg>
