<?xml version="1.0" encoding="utf-8"?>
<!-- Generator: Adobe Illustrator 26.0.0, SVG Export Plug-In . SVG Version: 6.00 Build 0)  -->
<svg version="1.1" xmlns="http://www.w3.org/2000/svg" xmlns:xlink="http://www.w3.org/1999/xlink" x="0px" y="0px"
	 viewBox="0 0 595.28 841.89" style="enable-background:new 0 0 595.28 841.89;" xml:space="preserve">
<style type="text/css">
	.st0{stroke:#000000;stroke-width:3;stroke-miterlimit:10;}
	.st1{fill:#FFFFFF;stroke:#FFFFFF;stroke-width:0.75;stroke-miterlimit:10;}
</style>
<g id="cabezas">
	<path d="M276.69,439.57c-14.63-19.94-29.82-39.44-46.96-57.35c-16.46-17.19-28.27-37.04-33.92-60.36
		c-2.43-10.02-8.6-16.71-18.58-19.64c-6.64-1.95-13.5-1.68-20.31-1.6c-2.14,0.02-4.31,0.39-6.4,0.89
		c-6.29,1.49-10.21,6.06-13.58,11.09c-2.16,3.23-4.86,5.25-8.62,6.23c-5.85,1.52-11.62,3.3-17.42,4.99
		c-3.42,0.99-3.97,2.45-2.51,5.74c1.17,2.64,2.09,5.38,3.07,8.1c0.73,2.03,1.23,4.15,2.06,6.13c1.6,3.85,4.37,6.68,8.58,7.18
		c5.08,0.59,10.25,1.02,15.34,0.76c5.54-0.29,9.11,1.79,9.83,7.05c0.26,1.88,0.25,3.85-0.03,5.72c-0.83,5.58-1.42,6.01-7.18,6.24
		c-0.14,0.01-0.28,0.1-0.7,0.26c0.76,1.39,1.5,2.74,2.69,4.88c-2.8-0.79-5.08-1.43-7.35-2.06c-2.52,5.62-1.48,8.73,4.61,13.29
		c-1.92,0.37-3.63,0.7-5.35,1.02c-0.11,0.21-0.23,0.42-0.34,0.64c1.53,1.01,3.05,2.02,4.32,2.86c-2.82,4.48-5.74,9.13-8.75,13.9
		c1.06,0.52,1.68,0.83,2.44,1.2c-0.76,2.5-1.47,4.85-2.26,7.46c0.96-0.49,1.67-0.85,2.83-1.44c-2.08,6.11,0.56,11.06,2.56,16.15
		c1.21,3.09,2.23,6.25,3.45,9.33c0.69,1.76,1.23,3.33,2.81,4.96c4.3,4.42,8.23,9.4,9.51,15.82c0.45,2.27,1.07,4.53,1.89,6.69
		c0.88,2.32,2.23,4.36,5.21,4.99c0.18-2.62,0.35-5,0.51-7.39c0.54-8,0.44-15.96-1.58-23.79c-1.72-6.67-3.39-13.34-3.05-20.05
		c1.01,3.99,1.73,8.35,3.23,12.42c3.61,9.79,4.93,19.94,5.66,30.26c0.74,10.36,1.87,20.69,2.74,31.05
		c0.64,7.67,0.76,15.3-2.49,22.55c-2.33,5.21-5.13,9.48-11.84,9.67c-3.94,0.11-7.38,5.6-6.91,9.68c0.31,2.67,3.51,6.49,8.14,6.24
		c5.4-0.29,10.83-0.03,16.24-0.1c4.92-0.06,8.95-2.93,10.02-7.74c0.63-2.85,0.12-5.94,0.38-8.89c0.21-2.35,0.1-5.21,1.39-6.87
		c2.22-2.86,2.2-5.41,1.04-8.41c-0.15-0.38-0.11-0.84-0.27-1.21c-1.61-3.78-0.16-6.36,3.17-8.23c0.12-0.07,0.17-0.27,0.3-0.49
		c-0.34-1.11-0.69-2.28-1.09-3.61c2.95-0.8,3.2-2.6,2.37-5.17c-0.5-1.53-0.49-3.31-0.35-4.95c0.44-5.11,1.61-9.87,7.3-11.79
		c-0.25-1.49-0.49-2.95-0.74-4.4c0.28-0.23,0.56-0.46,0.83-0.69c1.08,1.52,2.16,3.03,3.24,4.55c0.32-0.15,0.63-0.29,0.95-0.44
		c-1.05-4.15-2.09-8.31-3.13-12.43c1.55,1.84,3.21,3.82,5.24,6.24c-0.17-5.81-0.29-11.12-2.74-16.16c0.93,0.79,1.87,1.58,2.8,2.37
		c-1.1-4.06-3.08-7.72-3.78-11.61c-0.71-3.97-0.16-8.16-0.16-12.25c0.23-0.06,0.46-0.11,0.69-0.17c-0.78,10.66,6.1,19.25,7.56,29.74
		c-1.42-1.03-2.48-1.81-3.54-2.58c1.94,5.89,2.01,11.43-0.38,17.33c-0.63-1.28-1.08-2.19-1.77-3.58c-0.31,2.48-0.54,4.35-0.77,6.22
		c-0.19,0.06-0.37,0.12-0.56,0.18c-0.56-0.87-1.13-1.74-1.69-2.61c-0.17,0.14-0.35,0.28-0.52,0.41c-0.06,1.19-0.13,2.38-0.19,3.61
		c-0.77,0.08-1.36,0.07-1.9,0.22c-2.35,0.64-3.02,2.57-3.64,4.62c-0.59,1.97,0.09,3.05,1.67,4.35c2.94,2.42,5.88,5,8.17,8.01
		c2.5,3.28,4.26,7.13,6.56,11.11c0.94-3.08,1.89-6.2,2.95-9.7c-1.87,0-3,0-4.14,0c1.13-6.03,2.1-11.9,3.34-17.73
		c1.84-8.65,7.04-14.5,15.35-17.55c10.55-3.88,20.81-1.77,27.6,5.93c-1.2-0.66-2.1-1.06-2.88-1.61c-5.71-4.01-11.95-4.56-18.57-3.03
		c-8.32,1.93-15.58,5.24-18.08,14.35c-1.5,5.46-2.62,11.02-3.93,16.66c1.42-0.7,2.78-1.38,4.66-2.31
		c-1.08,5.6-2.05,10.62-3.11,16.08c1.31-0.95,2.22-1.61,3.34-2.42c0.08,1.29,0.14,2.28,0.2,3.32c0.86-0.24,1.54-0.42,2.21-0.61
		c3.16,8.83,4.46,10.86,9.43,14.32c2.04,1.42,4.22,2.65,6.28,4.06c0.98,0.67,1.81,1.54,3.23,2.77c-1.47,0.31-2.29,0.74-3,0.6
		c-4.2-0.85-8.36-1.89-12.56-2.74c-1.55-0.32-3.8-1.05-4.64-0.32c-3.12,2.68-6.16,5.62-8.5,8.98c-2.07,2.98,0.18,6.29,3.86,6.29
		c18.99,0.01,37.98,0.06,56.97-0.1c7.15-0.06,13.55-2.42,18.52-7.85c0.49-0.54,0.88-1.18,1.29-1.86c0.23-0.39,0.47-0.8,0.74-1.21
		c0,0,7.14-7.8,10.36-23.88c0-0.54,0-1.08,0-1.62c0-7.11-0.19-14.25-1.01-21.29C292.73,467.2,286.27,452.63,276.69,439.57z
		 M154.04,321.31c-2.41,0.29-4.82,0.58-7.9,0.95c-0.05-1.54-0.18-3.33-0.08-5.1c0.01-0.2,1.46-0.69,1.9-0.44
		c2.17,1.25,4.22,2.7,6.31,4.08C154.19,320.97,154.11,321.14,154.04,321.31z M186.86,329.19c-4.51,4.83-8.42,10.23-12.42,15.51
		c-2.75,3.64-4.94,3.95-7.44,0.1c-1.54-2.37-2.43-5.24-3.26-7.99c-1.55-5.14-1.72-10.44-1.37-14.61c1.3,4.72,2.79,10.49,4.54,16.18
		c0.54,1.77,1.63,3.44,2.75,4.94c1.03,1.38,2.45,1.39,3.52-0.11c0.91-1.28,1.53-2.77,2.5-3.99c2.73-3.45,5.38-6.98,8.4-10.16
		c5.4-5.69,6-12.71,1.12-18.57c-1.06-1.27-2.52-2.21-4.14-3.59C188.74,308.79,194.07,321.47,186.86,329.19z"/>
	<path d="M194.35,492.98c-1.93-1.87-4.01-3.59-6.03-5.37c-0.23,0.13-0.46,0.25-0.7,0.38c0.18,2.53,0.35,5.05,0.53,7.66
		c-0.72,0.15-1.49,0.32-2.48,0.53c0.59,1.5,1.12,2.86,1.7,4.33c-0.92,0.57-1.71,1.19-2.6,1.59c-1.42,0.65-2.01,1.53-1.51,3.12
		c1.1,3.48,2.13,6.99,3.29,10.83c-5.85,2.82-5.5,8.61-5.01,15.01c3.09,0,6.19,0.36,9.17-0.07c8.45-1.21,9.56-3.19,7.18-11.56
		c-0.93-3.26-1.73-6.55-2.57-9.84c-0.05-0.21,0.07-0.47,0.12-0.75c0.63-0.17,1.24-0.34,2.05-0.56c-2.02-4.02-2.02-4.02,1.41-6.66
		c0.07-0.05,0.14-0.09,0.21-0.14c1.23-1.02,1.52-1.98,0.2-3.26C197.58,496.56,196.08,494.65,194.35,492.98z"/>
	<path d="M208.55,525.12c3.03-2.83,4.61-2.97,8.29-1.07c3.36,1.74,6.79,3.16,10.83,2.61c-3.76-2.64-7.32-5.17-10.91-7.67
		c-2.46-1.71-5.15-2.56-7.96-1.14c-3.86,1.95-5.84,5.57-7.26,9.42c-0.31,0.85,0.58,2.15,0.91,3.24c0.3,0.08,0.59,0.15,0.89,0.23
		C205.07,528.85,206.69,526.85,208.55,525.12z"/>
	<path d="M484.03,323.72c-5.19-1.42-10.29-3.15-15.52-4.38c-4.92-1.16-8.37-3.84-11.12-8.05c-4.33-6.65-10.39-10.7-18.65-10.65
		c-4.16,0.02-8.33-0.14-12.47,0.19c-13.42,1.05-23.33,7.14-26.79,21.2c-5.5,22.32-16.43,41.68-32.16,58.27
		c-17.85,18.84-33.99,39.06-49.19,60.03c-8.47,11.69-14.36,24.66-16.83,39.06c-1.55,9.07-2.82,18.21-1.7,27.34
		c1.78,14.4,10.41,24.64,10.41,24.64c0.48,0.42,0.87,0.77,1.22,1.16c5.6,6.27,12.79,8.67,20.98,8.68
		c18.41,0.01,36.82,0.04,55.23,0.02c3.82,0,5.7-3.08,4-6.5c-0.47-0.95-1.13-1.86-1.86-2.64c-1.59-1.7-3.33-3.26-4.92-4.96
		c-1.8-1.92-3.73-2.05-6.09-1.05c-2.35,1-4.81,1.99-7.31,2.33c-2.54,0.35-5.27,1.42-8.53-0.35c4.29-3.02,8.23-5.57,11.93-8.45
		c3.97-3.09,5.95-7.47,6.83-12.46c0.92,0.29,1.61,0.51,2.39,0.77c0.07-1.11,0.12-2.11,0.2-3.36c1.19,0.87,2.1,1.53,3.29,2.39
		c-1.04-5.44-2.01-10.49-3.06-15.98c1.9,0.89,3.28,1.53,4.63,2.16c-0.84-3.58-1.91-6.98-2.41-10.46c-1.62-11.29-6.63-17-17.57-19.98
		c-7.51-2.04-14.61-1.89-21.16,2.87c-0.62,0.45-1.38,0.72-2.07,1.07c6.53-6.39,14.11-9.13,23.2-6.94
		c8.91,2.15,15.92,6.72,18.58,15.83c1.96,6.69,2.94,13.66,4.41,20.75c-1.42,0-2.54,0-4.33,0c1.1,3.47,2.07,6.57,3.23,10.23
		c1.4-3.17,2.23-5.61,3.49-7.81c2.86-4.98,6.91-8.94,11.49-12.34c1.11-0.83,1.63-1.56,1.32-3.09c-0.81-3.98-1.69-5.05-5.71-5.87
		c-0.06-1.15-0.12-2.32-0.19-3.5c-0.19-0.11-0.38-0.22-0.57-0.32c-0.59,0.87-1.18,1.74-2.12,3.12c-0.32-2.61-0.55-4.49-0.85-6.98
		c-0.76,1.51-1.22,2.44-1.79,3.58c-2.4-5.95-2.25-11.52-0.33-17.28c-1.07,0.76-2.14,1.53-3.59,2.56
		c1.64-10.51,8.28-19.11,7.88-29.65c2.24,8.55-0.06,16.27-4.25,23.67c0.24,0.09,0.49,0.17,0.73,0.26c0.94-0.77,1.88-1.55,2.82-2.32
		c-2.58,5.08-2.7,10.36-2.47,15.71c1.01-1.03,1.72-2.15,2.56-3.17c0.79-0.96,1.72-1.8,2.27-2.36c-0.95,3.91-1.95,8.03-2.95,12.15
		c0.33,0.15,0.67,0.3,1,0.45c1.09-1.44,2.18-2.88,3.27-4.32c0.22,0.19,0.44,0.39,0.67,0.58c-0.25,1.45-0.5,2.9-0.78,4.55
		c2.83,0.19,4.21,2.07,5.42,4.25c2.15,3.85,2.45,8,1.56,12.12c-0.57,2.65-0.66,4.56,2.37,5.26c-0.44,1.46-0.79,2.63-1.14,3.82
		c0.55,0.41,1,0.78,1.47,1.1c2.46,1.62,3.28,3.72,2.27,6.6c-0.66,1.87-1.05,3.84-1.43,5.79c-0.12,0.63-0.05,1.55,0.34,1.99
		c2.87,3.25,3.58,6.98,2.92,11.17c-0.24,1.55-0.16,3.16-0.09,4.74c0.22,5.17,4.44,10.02,9.24,10.18c6.41,0.22,12.83,0.17,19.24,0.05
		c3.54-0.07,6.84-3.85,6.47-7.25c-0.41-3.67-2.67-8.61-8.26-8.79c-3.97-0.13-6.48-2.21-8.5-5.54c-4.93-8.15-5.26-17.02-4.52-26.07
		c0.87-10.69,1.77-21.37,2.91-32.03c0.78-7.26,1.59-14.55,3.13-21.67c1.49-6.91,3.93-13.61,5.95-20.41
		c-0.56,5.3-1.01,10.69-2.33,15.87c-1.9,7.47-3.14,14.95-2.82,22.66c0.17,4.2,0.46,8.4,0.75,13.47c1.68-1.41,3.05-2.14,3.78-3.28
		c1.06-1.64,2.02-3.51,2.37-5.41c1.24-6.55,3.62-12.63,8.49-17.14c3.66-3.38,4.85-7.65,6.38-11.95c1.59-4.45,3.48-8.81,4.74-13.34
		c0.62-2.25,0.11-4.81,0.11-7.28c0.76,0.35,1.45,0.67,2.35,1.09c-0.8-2.65-1.51-5.01-2.23-7.39c0.83-0.43,1.46-0.75,2.42-1.25
		c-3.03-4.78-5.98-9.44-8.72-13.77c1.33-0.93,2.8-1.96,4.27-2.99c-0.14-0.2-0.28-0.39-0.43-0.59c-1.68-0.33-3.36-0.66-5.46-1.08
		c7.21-3.75,6.86-9.11,4.59-13.45c-2.15,0.77-4.18,2.61-6.65,1.51c0.77-1.47,1.47-2.81,2.3-4.38c-0.85,0-1.26,0-1.67,0
		c-4.3,0.01-5.29-0.72-5.98-4.91c-0.32-1.95-0.49-3.97-0.42-5.94c0.2-5.7,3.61-8.46,9.31-8.15c4.13,0.22,8.3,0.26,12.42-0.09
		c7.7-0.65,10.97-3.61,13.28-11.01c1.15-3.7,2.42-7.39,3.93-10.96C488.37,326.17,487.78,324.75,484.03,323.72z M428.77,344.3
		c-0.28,0.41-0.58,0.82-0.92,1.18c-2.83,2.99-4.27,2.79-6.74-0.43c-4.13-5.4-8.13-10.94-12.72-15.93
		c-6.85-7.45-2.23-19.83,5.52-21.9c-1.3,1.13-2.8,2.09-3.87,3.41c-4.71,5.8-4.11,12.54,0.97,18.23c3.63,4.07,6.89,8.5,10.05,12.95
		c2.29,3.23,4.11,3.43,5.93-0.21c2.94-5.9,4.94-12.15,5.4-18.79c0.04-0.56,0.07-1.13,0.13-2.19
		C434.08,327.6,431.73,339.91,428.77,344.3z M449.21,322.26c-3.03-0.36-5.44-0.65-7.86-0.94c-0.1-0.18-0.2-0.36-0.3-0.53
		c2.14-1.39,4.24-2.84,6.42-4.16c1.21-0.74,1.92-0.14,1.92,1.18C449.4,319.37,449.27,320.94,449.21,322.26z"/>
	<path d="M408.03,515.72c0.91-1.54,1.78-2.76,2.39-4.1c0.61-1.35,1.08-2.8,1.39-4.25c0.84-3.95,0.79-3.96-2.61-6.07
		c-0.41-0.26-0.8-0.56-1.24-0.87c0.57-1.44,1.1-2.8,1.67-4.25c-1.02-0.23-1.79-0.4-2.45-0.55c0.17-2.65,0.33-5.17,0.53-8.21
		c-5.28,3.29-8.66,7.65-12.34,11.69c-0.27,0.3,0,1.42,0.37,1.9c0.48,0.62,1.3,1,1.99,1.46c1.7,1.13,2.49,2.42,0.88,4.26
		c-0.34,0.39-0.47,0.97-0.71,1.51c0.83,0.31,1.48,0.55,2.37,0.88c-0.57,2.29-1.12,4.45-1.65,6.61c-0.76,3.13-1.64,6.25-2.22,9.42
		c-0.36,1.98,0.53,3.68,2.48,4.42c4.84,1.83,9.8,2.22,14.91,1.06C414.24,524.6,414.6,518.78,408.03,515.72z"/>
	<path d="M389.88,520.54c-2.77-3.72-7.2-4.43-11.02-1.8c-3.72,2.57-7.39,5.21-11.03,7.79c3.61,0.52,5.54,0.07,10.73-2.55
		c3.57-1.8,5.17-1.68,8.1,1.03c1.88,1.74,3.56,3.7,5.56,5.82c1.67-1.72,2.14-3.22,1.2-4.87
		C392.35,524.09,391.16,522.27,389.88,520.54z"/>
	<path class="st0" d="M318.13,440.32c15.2-20.98,31.34-41.2,49.19-60.03c4.06-4.28,7.78-8.75,11.19-13.41L375,367
		c6.04-8.32,11.04-17.03,14.95-26.03c-22.39-25.83-55.44-42.16-92.31-42.16c-36.87,0-69.93,16.34-92.32,42.18
		c4.11,9.38,9.36,18.42,15.69,27.01l-3.35-0.03c3.68,4.95,7.71,9.7,12.08,14.26c17.14,17.9,32.33,37.41,46.96,57.35
		c9.58,13.05,16.04,27.63,17.94,43.84c0.82,7.04,1.02,14.18,1.01,21.29c0,0.54,0,1.08,0,1.62c-3.22,16.07-10.36,23.88-10.36,23.88
		c-0.27,0.41-0.5,0.82-0.74,1.21c-0.4,0.68-0.79,1.32-1.29,1.86c-3.33,3.64-7.31,5.9-11.72,7.01c8.41,1.83,17.14,2.81,26.1,2.81
		c9.04,0,17.85-0.99,26.34-2.86c-4.8-1.21-9.1-3.65-12.73-7.71c-0.35-0.39-0.75-0.74-1.22-1.16c0,0-8.63-10.24-10.41-24.64
		c-1.13-9.12,0.14-18.27,1.7-27.34C303.77,464.98,309.66,452.01,318.13,440.32z"/>
</g>
<g id="Layer_1">
	<g>
		<g>
			<path class="st1" d="M254.4,404.54c-0.37,0.04-0.69,0.08-0.97,0.14c-0.28,0.05-0.64,0.16-1.06,0.31
				c-0.48,0.17-0.8,0.45-0.96,0.83s-0.23,0.79-0.23,1.22v3.2c0,0.65,0.01,1.17,0.02,1.56c0.01,0.39,0.03,0.88,0.05,1.46
				c-1.18,0.78-2.93,1.51-5.24,2.19c-2.31,0.69-4.43,1.03-6.37,1.03c-1.82,0-3.53-0.3-5.12-0.91c-1.59-0.61-2.99-1.52-4.2-2.74
				c-1.2-1.2-2.15-2.7-2.84-4.48c-0.69-1.79-1.04-3.83-1.04-6.13c0-2.15,0.32-4.13,0.97-5.96c0.65-1.82,1.59-3.4,2.82-4.71
				c1.2-1.31,2.67-2.31,4.4-3.03c1.73-0.71,3.65-1.07,5.75-1.07c1.43,0,2.75,0.19,3.97,0.58s2.22,0.8,3.01,1.24l1.1-1.07H250
				l0.16,10.04h-1.56c-0.9-3.02-1.97-5.26-3.22-6.72c-1.25-1.46-2.83-2.2-4.75-2.2c-2.27,0-4.02,1.09-5.25,3.26
				c-1.23,2.17-1.85,5.17-1.85,8.98c0,4.05,0.6,7.22,1.82,9.51c1.21,2.29,2.93,3.43,5.15,3.43c1.04,0,1.96-0.17,2.77-0.51
				c0.81-0.34,1.44-0.74,1.89-1.19v-5.58c0-0.47-0.08-0.86-0.23-1.17c-0.15-0.32-0.46-0.59-0.92-0.82c-0.35-0.18-0.8-0.33-1.33-0.45
				c-0.53-0.12-0.97-0.2-1.33-0.25v-1.51h13.06V404.54z"/>
			<path class="st1" d="M275.29,398.79c0.87,0.89,1.54,1.96,2,3.2c0.46,1.24,0.69,2.59,0.69,4.03c0,1.43-0.23,2.79-0.68,4.06
				c-0.45,1.27-1.12,2.36-1.99,3.27c-0.93,0.97-2.05,1.71-3.34,2.23c-1.29,0.52-2.77,0.78-4.44,0.78c-1.44,0-2.77-0.23-3.98-0.68
				s-2.28-1.13-3.22-2.04c-0.9-0.87-1.61-1.94-2.13-3.21c-0.52-1.27-0.78-2.7-0.78-4.27c0-1.55,0.23-2.93,0.68-4.14
				c0.45-1.21,1.14-2.28,2.05-3.23c0.87-0.9,1.95-1.61,3.23-2.1c1.28-0.5,2.71-0.75,4.3-0.75c1.65,0,3.11,0.25,4.37,0.75
				S274.39,397.88,275.29,398.79z M270.75,412.22c0.26-0.72,0.45-1.6,0.58-2.64c0.12-1.03,0.19-2.24,0.19-3.61
				c0-0.9-0.06-1.94-0.18-3.1c-0.12-1.16-0.3-2.08-0.53-2.75c-0.28-0.81-0.68-1.45-1.18-1.92s-1.14-0.7-1.9-0.7
				c-0.84,0-1.51,0.25-2.01,0.76c-0.5,0.5-0.89,1.16-1.16,1.96c-0.25,0.74-0.42,1.6-0.51,2.59s-0.14,2.02-0.14,3.09
				c0,1.41,0.04,2.58,0.12,3.5c0.08,0.92,0.28,1.85,0.6,2.78c0.27,0.8,0.66,1.43,1.17,1.9s1.15,0.7,1.93,0.7
				c0.71,0,1.32-0.22,1.82-0.65C270.06,413.7,270.46,413.06,270.75,412.22z"/>
			<path class="st1" d="M292.8,415.73h-11.16v-1.42c0.31-0.03,0.61-0.06,0.9-0.1c0.29-0.04,0.55-0.1,0.78-0.19
				c0.38-0.16,0.64-0.38,0.78-0.67c0.14-0.29,0.21-0.67,0.21-1.15v-21.48c0-0.49-0.09-0.95-0.27-1.37
				c-0.18-0.42-0.43-0.74-0.74-0.96c-0.24-0.17-0.59-0.33-1.07-0.48c-0.48-0.16-0.9-0.25-1.27-0.27v-1.42l8.93-0.5l0.27,0.31v25.92
				c0,0.48,0.08,0.87,0.23,1.16s0.4,0.53,0.75,0.7c0.24,0.12,0.49,0.22,0.75,0.31s0.57,0.15,0.93,0.19V415.73z"/>
			<path class="st1" d="M319.06,415.32l-8.73,0.56l-0.27-0.27v-1.78l-0.12-0.04c-0.58,0.69-1.36,1.28-2.34,1.79
				c-0.99,0.51-1.98,0.77-2.98,0.77c-2.38,0-4.35-0.97-5.89-2.91c-1.55-1.94-2.32-4.45-2.32-7.52c0-2.73,0.86-5.07,2.59-7.02
				c1.73-1.95,3.82-2.93,6.27-2.93c0.97,0,1.88,0.12,2.73,0.36c0.85,0.24,1.53,0.52,2.03,0.84v-6.34c0-0.48-0.09-0.93-0.27-1.35
				c-0.18-0.42-0.41-0.75-0.71-0.98c-0.37-0.28-0.82-0.49-1.37-0.61c-0.55-0.12-1.1-0.21-1.66-0.26v-1.42l9.58-0.5l0.27,0.31v25.42
				c0,0.49,0.07,0.9,0.22,1.24c0.15,0.34,0.38,0.6,0.71,0.79c0.25,0.14,0.61,0.25,1.08,0.31s0.87,0.1,1.17,0.12V415.32z
				 M310.02,411.87v-10.95c-0.08-0.3-0.2-0.63-0.34-0.99c-0.15-0.36-0.35-0.7-0.61-1.03c-0.24-0.27-0.55-0.51-0.95-0.72
				c-0.39-0.21-0.84-0.31-1.33-0.31c-1.18,0-2.14,0.73-2.9,2.19s-1.13,3.52-1.13,6.18c0,1.05,0.07,1.99,0.2,2.82
				s0.37,1.59,0.72,2.28s0.78,1.22,1.32,1.61s1.18,0.58,1.94,0.58c0.72,0,1.31-0.15,1.79-0.46
				C309.19,412.78,309.62,412.38,310.02,411.87z"/>
			<path class="st1" d="M340.98,411.1c-0.41,0.74-0.91,1.43-1.5,2.08c-0.58,0.65-1.25,1.21-1.99,1.68c-0.79,0.49-1.59,0.86-2.4,1.11
				c-0.81,0.25-1.74,0.38-2.79,0.38c-1.75,0-3.26-0.27-4.53-0.81s-2.32-1.27-3.14-2.19c-0.83-0.92-1.44-2-1.85-3.25
				c-0.41-1.25-0.61-2.6-0.61-4.06c0-1.32,0.22-2.58,0.66-3.79c0.44-1.21,1.07-2.28,1.89-3.23c0.8-0.92,1.82-1.66,3.04-2.23
				s2.59-0.85,4.1-0.85c1.65,0,3.01,0.22,4.07,0.66c1.06,0.44,1.94,1.05,2.64,1.82c0.67,0.74,1.16,1.61,1.47,2.61
				c0.31,1,0.46,2.05,0.46,3.15v1.26h-11.98c0,2.65,0.47,4.67,1.4,6.05c0.93,1.38,2.42,2.07,4.45,2.07c1.11,0,2.11-0.33,2.99-1
				s1.64-1.51,2.27-2.53L340.98,411.1z M334.21,403.73c0-0.78-0.04-1.57-0.11-2.38c-0.07-0.81-0.2-1.48-0.37-2
				c-0.2-0.61-0.48-1.07-0.82-1.38s-0.79-0.47-1.32-0.47c-0.91,0-1.64,0.5-2.18,1.51c-0.54,1.01-0.84,2.6-0.89,4.79L334.21,403.73z"
				/>
			<path class="st1" d="M367.77,415.73h-10.65v-1.42c0.22-0.03,0.5-0.06,0.82-0.1c0.32-0.04,0.56-0.1,0.73-0.19
				c0.25-0.14,0.42-0.35,0.53-0.62c0.11-0.27,0.16-0.67,0.16-1.2v-9.07c0-1.32-0.22-2.31-0.67-2.98c-0.44-0.67-1.1-1-1.96-1
				c-0.47,0-0.92,0.08-1.32,0.23c-0.41,0.16-0.81,0.38-1.2,0.68c-0.34,0.26-0.62,0.52-0.83,0.79c-0.21,0.27-0.38,0.51-0.52,0.72
				v10.41c0,0.45,0.06,0.83,0.18,1.13c0.12,0.3,0.31,0.53,0.58,0.69c0.19,0.12,0.43,0.22,0.71,0.31s0.56,0.15,0.83,0.19v1.42h-10.77
				v-1.42c0.29-0.03,0.59-0.06,0.89-0.11c0.3-0.04,0.56-0.11,0.77-0.18c0.38-0.14,0.64-0.36,0.78-0.66c0.14-0.3,0.21-0.68,0.21-1.16
				v-11.28c0-0.4-0.09-0.79-0.28-1.18c-0.19-0.39-0.44-0.7-0.74-0.95c-0.21-0.15-0.48-0.28-0.81-0.39c-0.33-0.1-0.68-0.17-1.07-0.21
				v-1.42l8.45-0.5l0.27,0.29v2.81h0.07c0.33-0.32,0.73-0.71,1.2-1.16c0.47-0.45,0.91-0.82,1.31-1.1c0.44-0.31,1.01-0.57,1.72-0.79
				c0.71-0.22,1.46-0.33,2.27-0.33c1.92,0,3.37,0.6,4.33,1.79c0.96,1.2,1.44,2.78,1.44,4.76v9.5c0,0.48,0.06,0.86,0.2,1.14
				c0.13,0.28,0.37,0.51,0.73,0.68c0.19,0.09,0.42,0.18,0.7,0.27s0.59,0.15,0.95,0.19V415.73z"/>
			<path class="st1" d="M281.36,435.11c0.76,0.57,1.37,1.28,1.84,2.14c0.47,0.86,0.71,1.87,0.71,3.03c0,1.4-0.27,2.58-0.81,3.54
				c-0.54,0.96-1.31,1.72-2.31,2.28c-1.06,0.59-2.29,1.01-3.68,1.26c-1.39,0.25-3.02,0.37-4.9,0.37h-13.06v-1.51
				c0.37-0.04,0.83-0.1,1.38-0.17c0.55-0.08,0.94-0.17,1.17-0.27c0.44-0.19,0.74-0.45,0.89-0.77c0.16-0.32,0.24-0.73,0.24-1.23
				v-19.39c0-0.47-0.06-0.85-0.19-1.16c-0.13-0.31-0.44-0.58-0.94-0.81c-0.37-0.17-0.79-0.31-1.28-0.42s-0.91-0.2-1.28-0.26v-1.51
				h13.66c3.44,0,5.92,0.52,7.44,1.55c1.52,1.03,2.29,2.56,2.29,4.58c0,0.93-0.17,1.75-0.51,2.45c-0.34,0.71-0.83,1.32-1.47,1.83
				c-0.58,0.48-1.27,0.89-2.07,1.24c-0.8,0.35-1.67,0.64-2.59,0.87v0.37c0.92,0.1,1.88,0.33,2.87,0.67S280.62,434.57,281.36,435.11z
				 M275.65,426.83c0-1.52-0.39-2.71-1.18-3.57c-0.79-0.85-1.96-1.28-3.54-1.28c-0.22,0-0.52,0.01-0.88,0.03
				c-0.36,0.02-0.67,0.04-0.93,0.05v10.2h0.92c1.91,0,3.33-0.49,4.23-1.46S275.65,428.5,275.65,426.83z M276.89,440.04
				c0-1.92-0.52-3.38-1.56-4.41c-1.04-1.02-2.53-1.53-4.48-1.53c-0.22,0-0.52,0.01-0.9,0.03s-0.65,0.04-0.82,0.05v10.08
				c0.11,0.48,0.44,0.88,0.99,1.21c0.55,0.33,1.23,0.5,2.02,0.5c1.41,0,2.55-0.52,3.43-1.55
				C276.45,443.38,276.89,441.92,276.89,440.04z"/>
			<path class="st1" d="M306.24,430.79c0.87,0.89,1.54,1.96,2,3.2c0.46,1.24,0.69,2.59,0.69,4.03c0,1.43-0.23,2.79-0.68,4.06
				c-0.45,1.27-1.12,2.36-1.99,3.27c-0.93,0.97-2.05,1.71-3.34,2.23c-1.29,0.52-2.77,0.78-4.44,0.78c-1.44,0-2.77-0.23-3.98-0.68
				s-2.28-1.13-3.22-2.04c-0.9-0.87-1.61-1.93-2.13-3.21s-0.78-2.7-0.78-4.27c0-1.55,0.23-2.93,0.68-4.14
				c0.45-1.21,1.14-2.28,2.05-3.23c0.87-0.9,1.95-1.61,3.23-2.1c1.28-0.5,2.71-0.75,4.3-0.75c1.65,0,3.11,0.25,4.37,0.75
				C304.26,429.18,305.34,429.88,306.24,430.79z M301.7,444.22c0.26-0.72,0.45-1.6,0.58-2.64c0.12-1.03,0.19-2.24,0.19-3.61
				c0-0.9-0.06-1.94-0.18-3.1c-0.12-1.16-0.3-2.08-0.53-2.75c-0.28-0.81-0.68-1.45-1.18-1.92c-0.5-0.46-1.14-0.7-1.9-0.7
				c-0.84,0-1.51,0.25-2.01,0.76s-0.89,1.16-1.16,1.96c-0.25,0.74-0.42,1.6-0.51,2.59c-0.09,0.99-0.14,2.02-0.14,3.09
				c0,1.41,0.04,2.58,0.12,3.5c0.08,0.92,0.28,1.85,0.6,2.78c0.27,0.8,0.66,1.43,1.17,1.9c0.51,0.46,1.15,0.7,1.93,0.7
				c0.71,0,1.32-0.22,1.82-0.65C301,445.7,301.4,445.06,301.7,444.22z"/>
			<path class="st1" d="M332.94,429.91c-0.53,0.09-1.05,0.31-1.55,0.66c-0.5,0.35-0.92,0.89-1.25,1.63
				c-1.02,2.35-2.06,4.86-3.14,7.51c-1.08,2.66-2.27,5.53-3.58,8.62c-0.73,1.73-1.44,3.11-2.13,4.15c-0.68,1.03-1.33,1.83-1.93,2.38
				c-0.57,0.52-1.13,0.89-1.68,1.12c-0.55,0.23-1.12,0.35-1.68,0.35c-1.12,0-2.03-0.34-2.72-1.03c-0.69-0.68-1.04-1.45-1.04-2.31
				c0-0.36,0.04-0.7,0.12-1.01c0.08-0.31,0.24-0.63,0.49-0.97c0.19-0.28,0.48-0.53,0.88-0.73c0.4-0.2,0.84-0.3,1.34-0.3
				c0.66,0,1.29,0.25,1.89,0.76c0.6,0.5,1.23,1.2,1.88,2.09c0.39-0.43,0.87-1.07,1.44-1.92c0.57-0.85,1-1.72,1.27-2.61
				c-1.41-3.23-2.65-6.03-3.74-8.4c-1.09-2.37-2.3-5.01-3.65-7.93c-0.29-0.62-0.69-1.1-1.19-1.44s-1.02-0.55-1.58-0.63v-1.42h10.84
				v1.42c-0.4,0.01-0.86,0.11-1.39,0.29c-0.52,0.18-0.79,0.41-0.79,0.7c0,0.1,0.02,0.22,0.05,0.34c0.04,0.12,0.1,0.3,0.19,0.53
				c0.4,0.9,0.97,2.16,1.71,3.76c0.74,1.61,1.6,3.48,2.58,5.64c0.73-1.83,1.35-3.41,1.87-4.73c0.51-1.32,1.01-2.62,1.5-3.89
				c0.12-0.32,0.19-0.58,0.2-0.76c0.02-0.19,0.03-0.31,0.03-0.38c0-0.23-0.1-0.44-0.31-0.61c-0.21-0.17-0.45-0.33-0.73-0.46
				c-0.29-0.13-0.58-0.23-0.85-0.29c-0.27-0.07-0.5-0.11-0.67-0.14v-1.42h7.32V429.91z"/>
			<path class="st1" d="M343.22,448.39c-1.15,0-2.26-0.18-3.36-0.55c-1.09-0.37-1.94-0.76-2.54-1.17l-0.53,1.32h-1.38l-0.23-7.23
				h1.29c0.18,0.58,0.47,1.24,0.89,1.97c0.41,0.73,0.89,1.39,1.42,1.97c0.56,0.58,1.19,1.07,1.91,1.47c0.71,0.4,1.48,0.6,2.29,0.6
				c1.07,0,1.88-0.23,2.4-0.69s0.79-1.17,0.79-2.12c0-0.52-0.12-0.94-0.35-1.28s-0.56-0.63-0.97-0.87
				c-0.46-0.26-0.97-0.48-1.51-0.66c-0.55-0.18-1.23-0.4-2.03-0.66c-0.8-0.26-1.49-0.52-2.06-0.79c-0.57-0.26-1.17-0.68-1.78-1.25
				c-0.53-0.5-0.96-1.11-1.28-1.82c-0.32-0.71-0.48-1.56-0.48-2.54c0-1.82,0.7-3.3,2.1-4.42c1.4-1.12,3.23-1.69,5.5-1.69
				c1.07,0,2.06,0.12,2.97,0.36c0.9,0.24,1.66,0.5,2.28,0.79l0.37-1.14h1.35l0.28,6.61h-1.24c-0.41-1.34-1.12-2.5-2.13-3.48
				c-1-0.98-2.08-1.46-3.24-1.46c-0.91,0-1.62,0.21-2.14,0.62c-0.52,0.41-0.78,0.99-0.78,1.73c0,0.98,0.38,1.69,1.14,2.13
				c0.76,0.44,1.83,0.85,3.19,1.24c2.11,0.59,3.66,1.41,4.63,2.43c0.98,1.03,1.47,2.34,1.47,3.93c0,2.12-0.76,3.76-2.28,4.92
				C347.65,447.81,345.67,448.39,343.22,448.39z"/>
		</g>
	</g>
</g>
</svg>
